<svg width="600" height="400" viewBox="0 0 600 400" xmlns="http://www.w3.org/2000/svg">
  <defs>
    <linearGradient id="gclaudebedrock" x1="0%" y1="0%" x2="100%" y2="100%">
      <stop offset="0%" stop-color="#CC785C"/>
      <stop offset="100%" stop-color="#D4A27F"/>
    </linearGradient>
    <marker id="arrow" markerWidth="8" markerHeight="8" refX="4" refY="4" orient="auto">
      <path d="M0,0 L8,4 L0,8 Z" fill="white" fill-opacity="0.6"/>
    </marker>
  </defs>
  <rect width="600" height="400" fill="url(#gclaudebedrock)"/>
  <circle cx="0" cy="0" r="1.4" fill="white" fill-opacity="0.12"/>
<circle cx="0" cy="28" r="1.4" fill="white" fill-opacity="0.12"/>
<circle cx="0" cy="56" r="1.4" fill="white" fill-opacity="0.12"/>
<circle cx="0" cy="84" r="1.4" fill="white" fill-opacity="0.12"/>
<circle cx="0" cy="112" r="1.4" fill="white" fill-opacity="0.12"/>
<circle cx="0" cy="140" r="1.4" fill="white" fill-opacity="0.12"/>
<circle cx="0" cy="168" r="1.4" fill="white" fill-opacity="0.12"/>
<circle cx="0" cy="196" r="1.4" fill="white" fill-opacity="0.12"/>
<circle cx="0" cy="224" r="1.4" fill="white" fill-opacity="0.12"/>
<circle cx="0" cy="252" r="1.4" fill="white" fill-opacity="0.12"/>
<circle cx="0" cy="280" r="1.4" fill="white" fill-opacity="0.12"/>
<circle cx="0" cy="308" r="1.4" fill="white" fill-opacity="0.12"/>
<circle cx="0" cy="336" r="1.4" fill="white" fill-opacity="0.12"/>
<circle cx="0" cy="364" r="1.4" fill="white" fill-opacity="0.12"/>
<circle cx="0" cy="392" r="1.4" fill="white" fill-opacity="0.12"/>
<circle cx="28" cy="0" r="1.4" fill="white" fill-opacity="0.12"/>
<circle cx="28" cy="28" r="1.4" fill="white" fill-opacity="0.12"/>
<circle cx="28" cy="56" r="1.4" fill="white" fill-opacity="0.12"/>
<circle cx="28" cy="84" r="1.4" fill="white" fill-opacity="0.12"/>
<circle cx="28" cy="112" r="1.4" fill="white" fill-opacity="0.12"/>
<circle cx="28" cy="140" r="1.4" fill="white" fill-opacity="0.12"/>
<circle cx="28" cy="168" r="1.4" fill="white" fill-opacity="0.12"/>
<circle cx="28" cy="196" r="1.4" fill="white" fill-opacity="0.12"/>
<circle cx="28" cy="224" r="1.4" fill="white" fill-opacity="0.12"/>
<circle cx="28" cy="252" r="1.4" fill="white" fill-opacity="0.12"/>
<circle cx="28" cy="280" r="1.4" fill="white" fill-opacity="0.12"/>
<circle cx="28" cy="308" r="1.4" fill="white" fill-opacity="0.12"/>
<circle cx="28" cy="336" r="1.4" fill="white" fill-opacity="0.12"/>
<circle cx="28" cy="364" r="1.4" fill="white" fill-opacity="0.12"/>
<circle cx="28" cy="392" r="1.4" fill="white" fill-opacity="0.12"/>
<circle cx="56" cy="0" r="1.4" fill="white" fill-opacity="0.12"/>
<circle cx="56" cy="28" r="1.4" fill="white" fill-opacity="0.12"/>
<circle cx="56" cy="56" r="1.4" fill="white" fill-opacity="0.12"/>
<circle cx="56" cy="84" r="1.4" fill="white" fill-opacity="0.12"/>
<circle cx="56" cy="112" r="1.4" fill="white" fill-opacity="0.12"/>
<circle cx="56" cy="140" r="1.4" fill="white" fill-opacity="0.12"/>
<circle cx="56" cy="168" r="1.4" fill="white" fill-opacity="0.12"/>
<circle cx="56" cy="196" r="1.4" fill="white" fill-opacity="0.12"/>
<circle cx="56" cy="224" r="1.4" fill="white" fill-opacity="0.12"/>
<circle cx="56" cy="252" r="1.4" fill="white" fill-opacity="0.12"/>
<circle cx="56" cy="280" r="1.4" fill="white" fill-opacity="0.12"/>
<circle cx="56" cy="308" r="1.4" fill="white" fill-opacity="0.12"/>
<circle cx="56" cy="336" r="1.4" fill="white" fill-opacity="0.12"/>
<circle cx="56" cy="364" r="1.4" fill="white" fill-opacity="0.12"/>
<circle cx="56" cy="392" r="1.4" fill="white" fill-opacity="0.12"/>
<circle cx="84" cy="0" r="1.4" fill="white" fill-opacity="0.12"/>
<circle cx="84" cy="28" r="1.4" fill="white" fill-opacity="0.12"/>
<circle cx="84" cy="56" r="1.4" fill="white" fill-opacity="0.12"/>
<circle cx="84" cy="84" r="1.4" fill="white" fill-opacity="0.12"/>
<circle cx="84" cy="112" r="1.4" fill="white" fill-opacity="0.12"/>
<circle cx="84" cy="140" r="1.4" fill="white" fill-opacity="0.12"/>
<circle cx="84" cy="168" r="1.4" fill="white" fill-opacity="0.12"/>
<circle cx="84" cy="196" r="1.4" fill="white" fill-opacity="0.12"/>
<circle cx="84" cy="224" r="1.4" fill="white" fill-opacity="0.12"/>
<circle cx="84" cy="252" r="1.4" fill="white" fill-opacity="0.12"/>
<circle cx="84" cy="280" r="1.4" fill="white" fill-opacity="0.12"/>
<circle cx="84" cy="308" r="1.4" fill="white" fill-opacity="0.12"/>
<circle cx="84" cy="336" r="1.4" fill="white" fill-opacity="0.12"/>
<circle cx="84" cy="364" r="1.4" fill="white" fill-opacity="0.12"/>
<circle cx="84" cy="392" r="1.4" fill="white" fill-opacity="0.12"/>
<circle cx="112" cy="0" r="1.4" fill="white" fill-opacity="0.12"/>
<circle cx="112" cy="28" r="1.4" fill="white" fill-opacity="0.12"/>
<circle cx="112" cy="56" r="1.4" fill="white" fill-opacity="0.12"/>
<circle cx="112" cy="84" r="1.4" fill="white" fill-opacity="0.12"/>
<circle cx="112" cy="112" r="1.4" fill="white" fill-opacity="0.12"/>
<circle cx="112" cy="140" r="1.4" fill="white" fill-opacity="0.12"/>
<circle cx="112" cy="168" r="1.4" fill="white" fill-opacity="0.12"/>
<circle cx="112" cy="196" r="1.4" fill="white" fill-opacity="0.12"/>
<circle cx="112" cy="224" r="1.4" fill="white" fill-opacity="0.12"/>
<circle cx="112" cy="252" r="1.4" fill="white" fill-opacity="0.12"/>
<circle cx="112" cy="280" r="1.4" fill="white" fill-opacity="0.12"/>
<circle cx="112" cy="308" r="1.4" fill="white" fill-opacity="0.12"/>
<circle cx="112" cy="336" r="1.4" fill="white" fill-opacity="0.12"/>
<circle cx="112" cy="364" r="1.4" fill="white" fill-opacity="0.12"/>
<circle cx="112" cy="392" r="1.4" fill="white" fill-opacity="0.12"/>
<circle cx="140" cy="0" r="1.4" fill="white" fill-opacity="0.12"/>
<circle cx="140" cy="28" r="1.4" fill="white" fill-opacity="0.12"/>
<circle cx="140" cy="56" r="1.4" fill="white" fill-opacity="0.12"/>
<circle cx="140" cy="84" r="1.4" fill="white" fill-opacity="0.12"/>
<circle cx="140" cy="112" r="1.4" fill="white" fill-opacity="0.12"/>
<circle cx="140" cy="140" r="1.4" fill="white" fill-opacity="0.12"/>
<circle cx="140" cy="168" r="1.4" fill="white" fill-opacity="0.12"/>
<circle cx="140" cy="196" r="1.4" fill="white" fill-opacity="0.12"/>
<circle cx="140" cy="224" r="1.4" fill="white" fill-opacity="0.12"/>
<circle cx="140" cy="252" r="1.4" fill="white" fill-opacity="0.12"/>
<circle cx="140" cy="280" r="1.4" fill="white" fill-opacity="0.12"/>
<circle cx="140" cy="308" r="1.4" fill="white" fill-opacity="0.12"/>
<circle cx="140" cy="336" r="1.4" fill="white" fill-opacity="0.12"/>
<circle cx="140" cy="364" r="1.4" fill="white" fill-opacity="0.12"/>
<circle cx="140" cy="392" r="1.4" fill="white" fill-opacity="0.12"/>
<circle cx="168" cy="0" r="1.4" fill="white" fill-opacity="0.12"/>
<circle cx="168" cy="28" r="1.4" fill="white" fill-opacity="0.12"/>
<circle cx="168" cy="56" r="1.4" fill="white" fill-opacity="0.12"/>
<circle cx="168" cy="84" r="1.4" fill="white" fill-opacity="0.12"/>
<circle cx="168" cy="112" r="1.4" fill="white" fill-opacity="0.12"/>
<circle cx="168" cy="140" r="1.4" fill="white" fill-opacity="0.12"/>
<circle cx="168" cy="168" r="1.4" fill="white" fill-opacity="0.12"/>
<circle cx="168" cy="196" r="1.4" fill="white" fill-opacity="0.12"/>
<circle cx="168" cy="224" r="1.4" fill="white" fill-opacity="0.12"/>
<circle cx="168" cy="252" r="1.4" fill="white" fill-opacity="0.12"/>
<circle cx="168" cy="280" r="1.4" fill="white" fill-opacity="0.12"/>
<circle cx="168" cy="308" r="1.4" fill="white" fill-opacity="0.12"/>
<circle cx="168" cy="336" r="1.4" fill="white" fill-opacity="0.12"/>
<circle cx="168" cy="364" r="1.4" fill="white" fill-opacity="0.12"/>
<circle cx="168" cy="392" r="1.4" fill="white" fill-opacity="0.12"/>
<circle cx="196" cy="0" r="1.4" fill="white" fill-opacity="0.12"/>
<circle cx="196" cy="28" r="1.4" fill="white" fill-opacity="0.12"/>
<circle cx="196" cy="56" r="1.4" fill="white" fill-opacity="0.12"/>
<circle cx="196" cy="84" r="1.4" fill="white" fill-opacity="0.12"/>
<circle cx="196" cy="112" r="1.4" fill="white" fill-opacity="0.12"/>
<circle cx="196" cy="140" r="1.4" fill="white" fill-opacity="0.12"/>
<circle cx="196" cy="168" r="1.4" fill="white" fill-opacity="0.12"/>
<circle cx="196" cy="196" r="1.4" fill="white" fill-opacity="0.12"/>
<circle cx="196" cy="224" r="1.4" fill="white" fill-opacity="0.12"/>
<circle cx="196" cy="252" r="1.4" fill="white" fill-opacity="0.12"/>
<circle cx="196" cy="280" r="1.4" fill="white" fill-opacity="0.12"/>
<circle cx="196" cy="308" r="1.4" fill="white" fill-opacity="0.12"/>
<circle cx="196" cy="336" r="1.4" fill="white" fill-opacity="0.12"/>
<circle cx="196" cy="364" r="1.4" fill="white" fill-opacity="0.12"/>
<circle cx="196" cy="392" r="1.4" fill="white" fill-opacity="0.12"/>
<circle cx="224" cy="0" r="1.4" fill="white" fill-opacity="0.12"/>
<circle cx="224" cy="28" r="1.4" fill="white" fill-opacity="0.12"/>
<circle cx="224" cy="56" r="1.4" fill="white" fill-opacity="0.12"/>
<circle cx="224" cy="84" r="1.4" fill="white" fill-opacity="0.12"/>
<circle cx="224" cy="112" r="1.4" fill="white" fill-opacity="0.12"/>
<circle cx="224" cy="140" r="1.4" fill="white" fill-opacity="0.12"/>
<circle cx="224" cy="168" r="1.4" fill="white" fill-opacity="0.12"/>
<circle cx="224" cy="196" r="1.4" fill="white" fill-opacity="0.12"/>
<circle cx="224" cy="224" r="1.4" fill="white" fill-opacity="0.12"/>
<circle cx="224" cy="252" r="1.4" fill="white" fill-opacity="0.12"/>
<circle cx="224" cy="280" r="1.4" fill="white" fill-opacity="0.12"/>
<circle cx="224" cy="308" r="1.4" fill="white" fill-opacity="0.12"/>
<circle cx="224" cy="336" r="1.4" fill="white" fill-opacity="0.12"/>
<circle cx="224" cy="364" r="1.4" fill="white" fill-opacity="0.12"/>
<circle cx="224" cy="392" r="1.4" fill="white" fill-opacity="0.12"/>
<circle cx="252" cy="0" r="1.4" fill="white" fill-opacity="0.12"/>
<circle cx="252" cy="28" r="1.4" fill="white" fill-opacity="0.12"/>
<circle cx="252" cy="56" r="1.4" fill="white" fill-opacity="0.12"/>
<circle cx="252" cy="84" r="1.4" fill="white" fill-opacity="0.12"/>
<circle cx="252" cy="112" r="1.4" fill="white" fill-opacity="0.12"/>
<circle cx="252" cy="140" r="1.4" fill="white" fill-opacity="0.12"/>
<circle cx="252" cy="168" r="1.4" fill="white" fill-opacity="0.12"/>
<circle cx="252" cy="196" r="1.4" fill="white" fill-opacity="0.12"/>
<circle cx="252" cy="224" r="1.4" fill="white" fill-opacity="0.12"/>
<circle cx="252" cy="252" r="1.4" fill="white" fill-opacity="0.12"/>
<circle cx="252" cy="280" r="1.4" fill="white" fill-opacity="0.12"/>
<circle cx="252" cy="308" r="1.4" fill="white" fill-opacity="0.12"/>
<circle cx="252" cy="336" r="1.4" fill="white" fill-opacity="0.12"/>
<circle cx="252" cy="364" r="1.4" fill="white" fill-opacity="0.12"/>
<circle cx="252" cy="392" r="1.4" fill="white" fill-opacity="0.12"/>
<circle cx="280" cy="0" r="1.4" fill="white" fill-opacity="0.12"/>
<circle cx="280" cy="28" r="1.4" fill="white" fill-opacity="0.12"/>
<circle cx="280" cy="56" r="1.4" fill="white" fill-opacity="0.12"/>
<circle cx="280" cy="84" r="1.4" fill="white" fill-opacity="0.12"/>
<circle cx="280" cy="112" r="1.4" fill="white" fill-opacity="0.12"/>
<circle cx="280" cy="140" r="1.4" fill="white" fill-opacity="0.12"/>
<circle cx="280" cy="168" r="1.4" fill="white" fill-opacity="0.12"/>
<circle cx="280" cy="196" r="1.4" fill="white" fill-opacity="0.12"/>
<circle cx="280" cy="224" r="1.4" fill="white" fill-opacity="0.12"/>
<circle cx="280" cy="252" r="1.4" fill="white" fill-opacity="0.12"/>
<circle cx="280" cy="280" r="1.4" fill="white" fill-opacity="0.12"/>
<circle cx="280" cy="308" r="1.4" fill="white" fill-opacity="0.12"/>
<circle cx="280" cy="336" r="1.4" fill="white" fill-opacity="0.12"/>
<circle cx="280" cy="364" r="1.4" fill="white" fill-opacity="0.12"/>
<circle cx="280" cy="392" r="1.4" fill="white" fill-opacity="0.12"/>
<circle cx="308" cy="0" r="1.4" fill="white" fill-opacity="0.12"/>
<circle cx="308" cy="28" r="1.4" fill="white" fill-opacity="0.12"/>
<circle cx="308" cy="56" r="1.4" fill="white" fill-opacity="0.12"/>
<circle cx="308" cy="84" r="1.4" fill="white" fill-opacity="0.12"/>
<circle cx="308" cy="112" r="1.4" fill="white" fill-opacity="0.12"/>
<circle cx="308" cy="140" r="1.4" fill="white" fill-opacity="0.12"/>
<circle cx="308" cy="168" r="1.4" fill="white" fill-opacity="0.12"/>
<circle cx="308" cy="196" r="1.4" fill="white" fill-opacity="0.12"/>
<circle cx="308" cy="224" r="1.4" fill="white" fill-opacity="0.12"/>
<circle cx="308" cy="252" r="1.4" fill="white" fill-opacity="0.12"/>
<circle cx="308" cy="280" r="1.4" fill="white" fill-opacity="0.12"/>
<circle cx="308" cy="308" r="1.4" fill="white" fill-opacity="0.12"/>
<circle cx="308" cy="336" r="1.4" fill="white" fill-opacity="0.12"/>
<circle cx="308" cy="364" r="1.4" fill="white" fill-opacity="0.12"/>
<circle cx="308" cy="392" r="1.4" fill="white" fill-opacity="0.12"/>
<circle cx="336" cy="0" r="1.4" fill="white" fill-opacity="0.12"/>
<circle cx="336" cy="28" r="1.4" fill="white" fill-opacity="0.12"/>
<circle cx="336" cy="56" r="1.4" fill="white" fill-opacity="0.12"/>
<circle cx="336" cy="84" r="1.4" fill="white" fill-opacity="0.12"/>
<circle cx="336" cy="112" r="1.4" fill="white" fill-opacity="0.12"/>
<circle cx="336" cy="140" r="1.4" fill="white" fill-opacity="0.12"/>
<circle cx="336" cy="168" r="1.4" fill="white" fill-opacity="0.12"/>
<circle cx="336" cy="196" r="1.4" fill="white" fill-opacity="0.12"/>
<circle cx="336" cy="224" r="1.4" fill="white" fill-opacity="0.12"/>
<circle cx="336" cy="252" r="1.4" fill="white" fill-opacity="0.12"/>
<circle cx="336" cy="280" r="1.4" fill="white" fill-opacity="0.12"/>
<circle cx="336" cy="308" r="1.4" fill="white" fill-opacity="0.12"/>
<circle cx="336" cy="336" r="1.4" fill="white" fill-opacity="0.12"/>
<circle cx="336" cy="364" r="1.4" fill="white" fill-opacity="0.12"/>
<circle cx="336" cy="392" r="1.4" fill="white" fill-opacity="0.12"/>
<circle cx="364" cy="0" r="1.4" fill="white" fill-opacity="0.12"/>
<circle cx="364" cy="28" r="1.4" fill="white" fill-opacity="0.12"/>
<circle cx="364" cy="56" r="1.4" fill="white" fill-opacity="0.12"/>
<circle cx="364" cy="84" r="1.4" fill="white" fill-opacity="0.12"/>
<circle cx="364" cy="112" r="1.4" fill="white" fill-opacity="0.12"/>
<circle cx="364" cy="140" r="1.4" fill="white" fill-opacity="0.12"/>
<circle cx="364" cy="168" r="1.4" fill="white" fill-opacity="0.12"/>
<circle cx="364" cy="196" r="1.4" fill="white" fill-opacity="0.12"/>
<circle cx="364" cy="224" r="1.4" fill="white" fill-opacity="0.12"/>
<circle cx="364" cy="252" r="1.4" fill="white" fill-opacity="0.12"/>
<circle cx="364" cy="280" r="1.4" fill="white" fill-opacity="0.12"/>
<circle cx="364" cy="308" r="1.4" fill="white" fill-opacity="0.12"/>
<circle cx="364" cy="336" r="1.4" fill="white" fill-opacity="0.12"/>
<circle cx="364" cy="364" r="1.4" fill="white" fill-opacity="0.12"/>
<circle cx="364" cy="392" r="1.4" fill="white" fill-opacity="0.12"/>
<circle cx="392" cy="0" r="1.4" fill="white" fill-opacity="0.12"/>
<circle cx="392" cy="28" r="1.4" fill="white" fill-opacity="0.12"/>
<circle cx="392" cy="56" r="1.4" fill="white" fill-opacity="0.12"/>
<circle cx="392" cy="84" r="1.4" fill="white" fill-opacity="0.12"/>
<circle cx="392" cy="112" r="1.4" fill="white" fill-opacity="0.12"/>
<circle cx="392" cy="140" r="1.4" fill="white" fill-opacity="0.12"/>
<circle cx="392" cy="168" r="1.4" fill="white" fill-opacity="0.12"/>
<circle cx="392" cy="196" r="1.4" fill="white" fill-opacity="0.12"/>
<circle cx="392" cy="224" r="1.4" fill="white" fill-opacity="0.12"/>
<circle cx="392" cy="252" r="1.4" fill="white" fill-opacity="0.12"/>
<circle cx="392" cy="280" r="1.4" fill="white" fill-opacity="0.12"/>
<circle cx="392" cy="308" r="1.4" fill="white" fill-opacity="0.12"/>
<circle cx="392" cy="336" r="1.4" fill="white" fill-opacity="0.12"/>
<circle cx="392" cy="364" r="1.4" fill="white" fill-opacity="0.12"/>
<circle cx="392" cy="392" r="1.4" fill="white" fill-opacity="0.12"/>
<circle cx="420" cy="0" r="1.4" fill="white" fill-opacity="0.12"/>
<circle cx="420" cy="28" r="1.4" fill="white" fill-opacity="0.12"/>
<circle cx="420" cy="56" r="1.4" fill="white" fill-opacity="0.12"/>
<circle cx="420" cy="84" r="1.4" fill="white" fill-opacity="0.12"/>
<circle cx="420" cy="112" r="1.4" fill="white" fill-opacity="0.12"/>
<circle cx="420" cy="140" r="1.4" fill="white" fill-opacity="0.12"/>
<circle cx="420" cy="168" r="1.4" fill="white" fill-opacity="0.12"/>
<circle cx="420" cy="196" r="1.4" fill="white" fill-opacity="0.12"/>
<circle cx="420" cy="224" r="1.4" fill="white" fill-opacity="0.12"/>
<circle cx="420" cy="252" r="1.4" fill="white" fill-opacity="0.12"/>
<circle cx="420" cy="280" r="1.4" fill="white" fill-opacity="0.12"/>
<circle cx="420" cy="308" r="1.4" fill="white" fill-opacity="0.12"/>
<circle cx="420" cy="336" r="1.4" fill="white" fill-opacity="0.12"/>
<circle cx="420" cy="364" r="1.4" fill="white" fill-opacity="0.12"/>
<circle cx="420" cy="392" r="1.4" fill="white" fill-opacity="0.12"/>
<circle cx="448" cy="0" r="1.4" fill="white" fill-opacity="0.12"/>
<circle cx="448" cy="28" r="1.4" fill="white" fill-opacity="0.12"/>
<circle cx="448" cy="56" r="1.4" fill="white" fill-opacity="0.12"/>
<circle cx="448" cy="84" r="1.4" fill="white" fill-opacity="0.12"/>
<circle cx="448" cy="112" r="1.4" fill="white" fill-opacity="0.12"/>
<circle cx="448" cy="140" r="1.4" fill="white" fill-opacity="0.12"/>
<circle cx="448" cy="168" r="1.4" fill="white" fill-opacity="0.12"/>
<circle cx="448" cy="196" r="1.4" fill="white" fill-opacity="0.12"/>
<circle cx="448" cy="224" r="1.4" fill="white" fill-opacity="0.12"/>
<circle cx="448" cy="252" r="1.4" fill="white" fill-opacity="0.12"/>
<circle cx="448" cy="280" r="1.4" fill="white" fill-opacity="0.12"/>
<circle cx="448" cy="308" r="1.4" fill="white" fill-opacity="0.12"/>
<circle cx="448" cy="336" r="1.4" fill="white" fill-opacity="0.12"/>
<circle cx="448" cy="364" r="1.4" fill="white" fill-opacity="0.12"/>
<circle cx="448" cy="392" r="1.4" fill="white" fill-opacity="0.12"/>
<circle cx="476" cy="0" r="1.4" fill="white" fill-opacity="0.12"/>
<circle cx="476" cy="28" r="1.4" fill="white" fill-opacity="0.12"/>
<circle cx="476" cy="56" r="1.4" fill="white" fill-opacity="0.12"/>
<circle cx="476" cy="84" r="1.4" fill="white" fill-opacity="0.12"/>
<circle cx="476" cy="112" r="1.4" fill="white" fill-opacity="0.12"/>
<circle cx="476" cy="140" r="1.4" fill="white" fill-opacity="0.12"/>
<circle cx="476" cy="168" r="1.4" fill="white" fill-opacity="0.12"/>
<circle cx="476" cy="196" r="1.4" fill="white" fill-opacity="0.12"/>
<circle cx="476" cy="224" r="1.4" fill="white" fill-opacity="0.12"/>
<circle cx="476" cy="252" r="1.4" fill="white" fill-opacity="0.12"/>
<circle cx="476" cy="280" r="1.4" fill="white" fill-opacity="0.12"/>
<circle cx="476" cy="308" r="1.4" fill="white" fill-opacity="0.12"/>
<circle cx="476" cy="336" r="1.4" fill="white" fill-opacity="0.12"/>
<circle cx="476" cy="364" r="1.4" fill="white" fill-opacity="0.12"/>
<circle cx="476" cy="392" r="1.4" fill="white" fill-opacity="0.12"/>
<circle cx="504" cy="0" r="1.4" fill="white" fill-opacity="0.12"/>
<circle cx="504" cy="28" r="1.4" fill="white" fill-opacity="0.12"/>
<circle cx="504" cy="56" r="1.4" fill="white" fill-opacity="0.12"/>
<circle cx="504" cy="84" r="1.4" fill="white" fill-opacity="0.12"/>
<circle cx="504" cy="112" r="1.4" fill="white" fill-opacity="0.12"/>
<circle cx="504" cy="140" r="1.4" fill="white" fill-opacity="0.12"/>
<circle cx="504" cy="168" r="1.4" fill="white" fill-opacity="0.12"/>
<circle cx="504" cy="196" r="1.4" fill="white" fill-opacity="0.12"/>
<circle cx="504" cy="224" r="1.4" fill="white" fill-opacity="0.12"/>
<circle cx="504" cy="252" r="1.4" fill="white" fill-opacity="0.12"/>
<circle cx="504" cy="280" r="1.4" fill="white" fill-opacity="0.12"/>
<circle cx="504" cy="308" r="1.4" fill="white" fill-opacity="0.12"/>
<circle cx="504" cy="336" r="1.4" fill="white" fill-opacity="0.12"/>
<circle cx="504" cy="364" r="1.4" fill="white" fill-opacity="0.12"/>
<circle cx="504" cy="392" r="1.4" fill="white" fill-opacity="0.12"/>
<circle cx="532" cy="0" r="1.4" fill="white" fill-opacity="0.12"/>
<circle cx="532" cy="28" r="1.4" fill="white" fill-opacity="0.12"/>
<circle cx="532" cy="56" r="1.4" fill="white" fill-opacity="0.12"/>
<circle cx="532" cy="84" r="1.4" fill="white" fill-opacity="0.12"/>
<circle cx="532" cy="112" r="1.4" fill="white" fill-opacity="0.12"/>
<circle cx="532" cy="140" r="1.4" fill="white" fill-opacity="0.12"/>
<circle cx="532" cy="168" r="1.4" fill="white" fill-opacity="0.12"/>
<circle cx="532" cy="196" r="1.4" fill="white" fill-opacity="0.12"/>
<circle cx="532" cy="224" r="1.4" fill="white" fill-opacity="0.12"/>
<circle cx="532" cy="252" r="1.4" fill="white" fill-opacity="0.12"/>
<circle cx="532" cy="280" r="1.4" fill="white" fill-opacity="0.12"/>
<circle cx="532" cy="308" r="1.4" fill="white" fill-opacity="0.12"/>
<circle cx="532" cy="336" r="1.4" fill="white" fill-opacity="0.12"/>
<circle cx="532" cy="364" r="1.4" fill="white" fill-opacity="0.12"/>
<circle cx="532" cy="392" r="1.4" fill="white" fill-opacity="0.12"/>
<circle cx="560" cy="0" r="1.4" fill="white" fill-opacity="0.12"/>
<circle cx="560" cy="28" r="1.4" fill="white" fill-opacity="0.12"/>
<circle cx="560" cy="56" r="1.4" fill="white" fill-opacity="0.12"/>
<circle cx="560" cy="84" r="1.4" fill="white" fill-opacity="0.12"/>
<circle cx="560" cy="112" r="1.4" fill="white" fill-opacity="0.12"/>
<circle cx="560" cy="140" r="1.4" fill="white" fill-opacity="0.12"/>
<circle cx="560" cy="168" r="1.4" fill="white" fill-opacity="0.12"/>
<circle cx="560" cy="196" r="1.4" fill="white" fill-opacity="0.12"/>
<circle cx="560" cy="224" r="1.4" fill="white" fill-opacity="0.12"/>
<circle cx="560" cy="252" r="1.4" fill="white" fill-opacity="0.12"/>
<circle cx="560" cy="280" r="1.4" fill="white" fill-opacity="0.12"/>
<circle cx="560" cy="308" r="1.4" fill="white" fill-opacity="0.12"/>
<circle cx="560" cy="336" r="1.4" fill="white" fill-opacity="0.12"/>
<circle cx="560" cy="364" r="1.4" fill="white" fill-opacity="0.12"/>
<circle cx="560" cy="392" r="1.4" fill="white" fill-opacity="0.12"/>
<circle cx="588" cy="0" r="1.4" fill="white" fill-opacity="0.12"/>
<circle cx="588" cy="28" r="1.4" fill="white" fill-opacity="0.12"/>
<circle cx="588" cy="56" r="1.4" fill="white" fill-opacity="0.12"/>
<circle cx="588" cy="84" r="1.4" fill="white" fill-opacity="0.12"/>
<circle cx="588" cy="112" r="1.4" fill="white" fill-opacity="0.12"/>
<circle cx="588" cy="140" r="1.4" fill="white" fill-opacity="0.12"/>
<circle cx="588" cy="168" r="1.4" fill="white" fill-opacity="0.12"/>
<circle cx="588" cy="196" r="1.4" fill="white" fill-opacity="0.12"/>
<circle cx="588" cy="224" r="1.4" fill="white" fill-opacity="0.12"/>
<circle cx="588" cy="252" r="1.4" fill="white" fill-opacity="0.12"/>
<circle cx="588" cy="280" r="1.4" fill="white" fill-opacity="0.12"/>
<circle cx="588" cy="308" r="1.4" fill="white" fill-opacity="0.12"/>
<circle cx="588" cy="336" r="1.4" fill="white" fill-opacity="0.12"/>
<circle cx="588" cy="364" r="1.4" fill="white" fill-opacity="0.12"/>
<circle cx="588" cy="392" r="1.4" fill="white" fill-opacity="0.12"/>

  <rect x="60" y="160" width="100" height="70" rx="10" fill="white" fill-opacity="0.18" stroke="white" stroke-opacity="0.4" stroke-width="2"/>
<text x="110" y="200" font-family="Arial" font-size="16" font-weight="700" fill="white" text-anchor="middle" opacity="0.9">BUILD</text>
<line x1="160" y1="195" x2="190" y2="195" stroke="white" stroke-opacity="0.5" stroke-width="3" marker-end="url(#arrow)"/>
<rect x="190" y="160" width="100" height="70" rx="10" fill="white" fill-opacity="0.18" stroke="white" stroke-opacity="0.4" stroke-width="2"/>
<text x="240" y="200" font-family="Arial" font-size="16" font-weight="700" fill="white" text-anchor="middle" opacity="0.9">TEST</text>
<line x1="290" y1="195" x2="320" y2="195" stroke="white" stroke-opacity="0.5" stroke-width="3" marker-end="url(#arrow)"/>
<rect x="320" y="160" width="100" height="70" rx="10" fill="white" fill-opacity="0.18" stroke="white" stroke-opacity="0.4" stroke-width="2"/>
<text x="370" y="200" font-family="Arial" font-size="16" font-weight="700" fill="white" text-anchor="middle" opacity="0.9">SCAN</text>
<line x1="420" y1="195" x2="450" y2="195" stroke="white" stroke-opacity="0.5" stroke-width="3" marker-end="url(#arrow)"/>
<rect x="450" y="160" width="100" height="70" rx="10" fill="white" fill-opacity="0.18" stroke="white" stroke-opacity="0.4" stroke-width="2"/>
<text x="500" y="200" font-family="Arial" font-size="16" font-weight="700" fill="white" text-anchor="middle" opacity="0.9">DEPLOY</text>

  <text x="30" y="370" font-family="Arial, sans-serif" font-size="20" font-weight="600" fill="white" opacity="0.85">Claude Code on Bedrock</text>
</svg>