<svg width="600" height="400" viewBox="0 0 600 400" xmlns="http://www.w3.org/2000/svg">
  <defs>
    <linearGradient id="gcloudfrequencies" x1="0%" y1="0%" x2="100%" y2="100%">
      <stop offset="0%" stop-color="#8E44AD"/>
      <stop offset="100%" stop-color="#F39C12"/>
    </linearGradient>
    <marker id="arrow" markerWidth="8" markerHeight="8" refX="4" refY="4" orient="auto">
      <path d="M0,0 L8,4 L0,8 Z" fill="white" fill-opacity="0.6"/>
    </marker>
  </defs>
  <rect width="600" height="400" fill="url(#gcloudfrequencies)"/>
  <circle cx="0" cy="0" r="1.4" fill="white" fill-opacity="0.12"/>
<circle cx="0" cy="28" r="1.4" fill="white" fill-opacity="0.12"/>
<circle cx="0" cy="56" r="1.4" fill="white" fill-opacity="0.12"/>
<circle cx="0" cy="84" r="1.4" fill="white" fill-opacity="0.12"/>
<circle cx="0" cy="112" r="1.4" fill="white" fill-opacity="0.12"/>
<circle cx="0" cy="140" r="1.4" fill="white" fill-opacity="0.12"/>
<circle cx="0" cy="168" r="1.4" fill="white" fill-opacity="0.12"/>
<circle cx="0" cy="196" r="1.4" fill="white" fill-opacity="0.12"/>
<circle cx="0" cy="224" r="1.4" fill="white" fill-opacity="0.12"/>
<circle cx="0" cy="252" r="1.4" fill="white" fill-opacity="0.12"/>
<circle cx="0" cy="280" r="1.4" fill="white" fill-opacity="0.12"/>
<circle cx="0" cy="308" r="1.4" fill="white" fill-opacity="0.12"/>
<circle cx="0" cy="336" r="1.4" fill="white" fill-opacity="0.12"/>
<circle cx="0" cy="364" r="1.4" fill="white" fill-opacity="0.12"/>
<circle cx="0" cy="392" r="1.4" fill="white" fill-opacity="0.12"/>
<circle cx="28" cy="0" r="1.4" fill="white" fill-opacity="0.12"/>
<circle cx="28" cy="28" r="1.4" fill="white" fill-opacity="0.12"/>
<circle cx="28" cy="56" r="1.4" fill="white" fill-opacity="0.12"/>
<circle cx="28" cy="84" r="1.4" fill="white" fill-opacity="0.12"/>
<circle cx="28" cy="112" r="1.4" fill="white" fill-opacity="0.12"/>
<circle cx="28" cy="140" r="1.4" fill="white" fill-opacity="0.12"/>
<circle cx="28" cy="168" r="1.4" fill="white" fill-opacity="0.12"/>
<circle cx="28" cy="196" r="1.4" fill="white" fill-opacity="0.12"/>
<circle cx="28" cy="224" r="1.4" fill="white" fill-opacity="0.12"/>
<circle cx="28" cy="252" r="1.4" fill="white" fill-opacity="0.12"/>
<circle cx="28" cy="280" r="1.4" fill="white" fill-opacity="0.12"/>
<circle cx="28" cy="308" r="1.4" fill="white" fill-opacity="0.12"/>
<circle cx="28" cy="336" r="1.4" fill="white" fill-opacity="0.12"/>
<circle cx="28" cy="364" r="1.4" fill="white" fill-opacity="0.12"/>
<circle cx="28" cy="392" r="1.4" fill="white" fill-opacity="0.12"/>
<circle cx="56" cy="0" r="1.4" fill="white" fill-opacity="0.12"/>
<circle cx="56" cy="28" r="1.4" fill="white" fill-opacity="0.12"/>
<circle cx="56" cy="56" r="1.4" fill="white" fill-opacity="0.12"/>
<circle cx="56" cy="84" r="1.4" fill="white" fill-opacity="0.12"/>
<circle cx="56" cy="112" r="1.4" fill="white" fill-opacity="0.12"/>
<circle cx="56" cy="140" r="1.4" fill="white" fill-opacity="0.12"/>
<circle cx="56" cy="168" r="1.4" fill="white" fill-opacity="0.12"/>
<circle cx="56" cy="196" r="1.4" fill="white" fill-opacity="0.12"/>
<circle cx="56" cy="224" r="1.4" fill="white" fill-opacity="0.12"/>
<circle cx="56" cy="252" r="1.4" fill="white" fill-opacity="0.12"/>
<circle cx="56" cy="280" r="1.4" fill="white" fill-opacity="0.12"/>
<circle cx="56" cy="308" r="1.4" fill="white" fill-opacity="0.12"/>
<circle cx="56" cy="336" r="1.4" fill="white" fill-opacity="0.12"/>
<circle cx="56" cy="364" r="1.4" fill="white" fill-opacity="0.12"/>
<circle cx="56" cy="392" r="1.4" fill="white" fill-opacity="0.12"/>
<circle cx="84" cy="0" r="1.4" fill="white" fill-opacity="0.12"/>
<circle cx="84" cy="28" r="1.4" fill="white" fill-opacity="0.12"/>
<circle cx="84" cy="56" r="1.4" fill="white" fill-opacity="0.12"/>
<circle cx="84" cy="84" r="1.4" fill="white" fill-opacity="0.12"/>
<circle cx="84" cy="112" r="1.4" fill="white" fill-opacity="0.12"/>
<circle cx="84" cy="140" r="1.4" fill="white" fill-opacity="0.12"/>
<circle cx="84" cy="168" r="1.4" fill="white" fill-opacity="0.12"/>
<circle cx="84" cy="196" r="1.4" fill="white" fill-opacity="0.12"/>
<circle cx="84" cy="224" r="1.4" fill="white" fill-opacity="0.12"/>
<circle cx="84" cy="252" r="1.4" fill="white" fill-opacity="0.12"/>
<circle cx="84" cy="280" r="1.4" fill="white" fill-opacity="0.12"/>
<circle cx="84" cy="308" r="1.4" fill="white" fill-opacity="0.12"/>
<circle cx="84" cy="336" r="1.4" fill="white" fill-opacity="0.12"/>
<circle cx="84" cy="364" r="1.4" fill="white" fill-opacity="0.12"/>
<circle cx="84" cy="392" r="1.4" fill="white" fill-opacity="0.12"/>
<circle cx="112" cy="0" r="1.4" fill="white" fill-opacity="0.12"/>
<circle cx="112" cy="28" r="1.4" fill="white" fill-opacity="0.12"/>
<circle cx="112" cy="56" r="1.4" fill="white" fill-opacity="0.12"/>
<circle cx="112" cy="84" r="1.4" fill="white" fill-opacity="0.12"/>
<circle cx="112" cy="112" r="1.4" fill="white" fill-opacity="0.12"/>
<circle cx="112" cy="140" r="1.4" fill="white" fill-opacity="0.12"/>
<circle cx="112" cy="168" r="1.4" fill="white" fill-opacity="0.12"/>
<circle cx="112" cy="196" r="1.4" fill="white" fill-opacity="0.12"/>
<circle cx="112" cy="224" r="1.4" fill="white" fill-opacity="0.12"/>
<circle cx="112" cy="252" r="1.4" fill="white" fill-opacity="0.12"/>
<circle cx="112" cy="280" r="1.4" fill="white" fill-opacity="0.12"/>
<circle cx="112" cy="308" r="1.4" fill="white" fill-opacity="0.12"/>
<circle cx="112" cy="336" r="1.4" fill="white" fill-opacity="0.12"/>
<circle cx="112" cy="364" r="1.4" fill="white" fill-opacity="0.12"/>
<circle cx="112" cy="392" r="1.4" fill="white" fill-opacity="0.12"/>
<circle cx="140" cy="0" r="1.4" fill="white" fill-opacity="0.12"/>
<circle cx="140" cy="28" r="1.4" fill="white" fill-opacity="0.12"/>
<circle cx="140" cy="56" r="1.4" fill="white" fill-opacity="0.12"/>
<circle cx="140" cy="84" r="1.4" fill="white" fill-opacity="0.12"/>
<circle cx="140" cy="112" r="1.4" fill="white" fill-opacity="0.12"/>
<circle cx="140" cy="140" r="1.4" fill="white" fill-opacity="0.12"/>
<circle cx="140" cy="168" r="1.4" fill="white" fill-opacity="0.12"/>
<circle cx="140" cy="196" r="1.4" fill="white" fill-opacity="0.12"/>
<circle cx="140" cy="224" r="1.4" fill="white" fill-opacity="0.12"/>
<circle cx="140" cy="252" r="1.4" fill="white" fill-opacity="0.12"/>
<circle cx="140" cy="280" r="1.4" fill="white" fill-opacity="0.12"/>
<circle cx="140" cy="308" r="1.4" fill="white" fill-opacity="0.12"/>
<circle cx="140" cy="336" r="1.4" fill="white" fill-opacity="0.12"/>
<circle cx="140" cy="364" r="1.4" fill="white" fill-opacity="0.12"/>
<circle cx="140" cy="392" r="1.4" fill="white" fill-opacity="0.12"/>
<circle cx="168" cy="0" r="1.4" fill="white" fill-opacity="0.12"/>
<circle cx="168" cy="28" r="1.4" fill="white" fill-opacity="0.12"/>
<circle cx="168" cy="56" r="1.4" fill="white" fill-opacity="0.12"/>
<circle cx="168" cy="84" r="1.4" fill="white" fill-opacity="0.12"/>
<circle cx="168" cy="112" r="1.4" fill="white" fill-opacity="0.12"/>
<circle cx="168" cy="140" r="1.4" fill="white" fill-opacity="0.12"/>
<circle cx="168" cy="168" r="1.4" fill="white" fill-opacity="0.12"/>
<circle cx="168" cy="196" r="1.4" fill="white" fill-opacity="0.12"/>
<circle cx="168" cy="224" r="1.4" fill="white" fill-opacity="0.12"/>
<circle cx="168" cy="252" r="1.4" fill="white" fill-opacity="0.12"/>
<circle cx="168" cy="280" r="1.4" fill="white" fill-opacity="0.12"/>
<circle cx="168" cy="308" r="1.4" fill="white" fill-opacity="0.12"/>
<circle cx="168" cy="336" r="1.4" fill="white" fill-opacity="0.12"/>
<circle cx="168" cy="364" r="1.4" fill="white" fill-opacity="0.12"/>
<circle cx="168" cy="392" r="1.4" fill="white" fill-opacity="0.12"/>
<circle cx="196" cy="0" r="1.4" fill="white" fill-opacity="0.12"/>
<circle cx="196" cy="28" r="1.4" fill="white" fill-opacity="0.12"/>
<circle cx="196" cy="56" r="1.4" fill="white" fill-opacity="0.12"/>
<circle cx="196" cy="84" r="1.4" fill="white" fill-opacity="0.12"/>
<circle cx="196" cy="112" r="1.4" fill="white" fill-opacity="0.12"/>
<circle cx="196" cy="140" r="1.4" fill="white" fill-opacity="0.12"/>
<circle cx="196" cy="168" r="1.4" fill="white" fill-opacity="0.12"/>
<circle cx="196" cy="196" r="1.4" fill="white" fill-opacity="0.12"/>
<circle cx="196" cy="224" r="1.4" fill="white" fill-opacity="0.12"/>
<circle cx="196" cy="252" r="1.4" fill="white" fill-opacity="0.12"/>
<circle cx="196" cy="280" r="1.4" fill="white" fill-opacity="0.12"/>
<circle cx="196" cy="308" r="1.4" fill="white" fill-opacity="0.12"/>
<circle cx="196" cy="336" r="1.4" fill="white" fill-opacity="0.12"/>
<circle cx="196" cy="364" r="1.4" fill="white" fill-opacity="0.12"/>
<circle cx="196" cy="392" r="1.4" fill="white" fill-opacity="0.12"/>
<circle cx="224" cy="0" r="1.4" fill="white" fill-opacity="0.12"/>
<circle cx="224" cy="28" r="1.4" fill="white" fill-opacity="0.12"/>
<circle cx="224" cy="56" r="1.4" fill="white" fill-opacity="0.12"/>
<circle cx="224" cy="84" r="1.4" fill="white" fill-opacity="0.12"/>
<circle cx="224" cy="112" r="1.4" fill="white" fill-opacity="0.12"/>
<circle cx="224" cy="140" r="1.4" fill="white" fill-opacity="0.12"/>
<circle cx="224" cy="168" r="1.4" fill="white" fill-opacity="0.12"/>
<circle cx="224" cy="196" r="1.4" fill="white" fill-opacity="0.12"/>
<circle cx="224" cy="224" r="1.4" fill="white" fill-opacity="0.12"/>
<circle cx="224" cy="252" r="1.4" fill="white" fill-opacity="0.12"/>
<circle cx="224" cy="280" r="1.4" fill="white" fill-opacity="0.12"/>
<circle cx="224" cy="308" r="1.4" fill="white" fill-opacity="0.12"/>
<circle cx="224" cy="336" r="1.4" fill="white" fill-opacity="0.12"/>
<circle cx="224" cy="364" r="1.4" fill="white" fill-opacity="0.12"/>
<circle cx="224" cy="392" r="1.4" fill="white" fill-opacity="0.12"/>
<circle cx="252" cy="0" r="1.4" fill="white" fill-opacity="0.12"/>
<circle cx="252" cy="28" r="1.4" fill="white" fill-opacity="0.12"/>
<circle cx="252" cy="56" r="1.4" fill="white" fill-opacity="0.12"/>
<circle cx="252" cy="84" r="1.4" fill="white" fill-opacity="0.12"/>
<circle cx="252" cy="112" r="1.4" fill="white" fill-opacity="0.12"/>
<circle cx="252" cy="140" r="1.4" fill="white" fill-opacity="0.12"/>
<circle cx="252" cy="168" r="1.4" fill="white" fill-opacity="0.12"/>
<circle cx="252" cy="196" r="1.4" fill="white" fill-opacity="0.12"/>
<circle cx="252" cy="224" r="1.4" fill="white" fill-opacity="0.12"/>
<circle cx="252" cy="252" r="1.4" fill="white" fill-opacity="0.12"/>
<circle cx="252" cy="280" r="1.4" fill="white" fill-opacity="0.12"/>
<circle cx="252" cy="308" r="1.4" fill="white" fill-opacity="0.12"/>
<circle cx="252" cy="336" r="1.4" fill="white" fill-opacity="0.12"/>
<circle cx="252" cy="364" r="1.4" fill="white" fill-opacity="0.12"/>
<circle cx="252" cy="392" r="1.4" fill="white" fill-opacity="0.12"/>
<circle cx="280" cy="0" r="1.4" fill="white" fill-opacity="0.12"/>
<circle cx="280" cy="28" r="1.4" fill="white" fill-opacity="0.12"/>
<circle cx="280" cy="56" r="1.4" fill="white" fill-opacity="0.12"/>
<circle cx="280" cy="84" r="1.4" fill="white" fill-opacity="0.12"/>
<circle cx="280" cy="112" r="1.4" fill="white" fill-opacity="0.12"/>
<circle cx="280" cy="140" r="1.4" fill="white" fill-opacity="0.12"/>
<circle cx="280" cy="168" r="1.4" fill="white" fill-opacity="0.12"/>
<circle cx="280" cy="196" r="1.4" fill="white" fill-opacity="0.12"/>
<circle cx="280" cy="224" r="1.4" fill="white" fill-opacity="0.12"/>
<circle cx="280" cy="252" r="1.4" fill="white" fill-opacity="0.12"/>
<circle cx="280" cy="280" r="1.4" fill="white" fill-opacity="0.12"/>
<circle cx="280" cy="308" r="1.4" fill="white" fill-opacity="0.12"/>
<circle cx="280" cy="336" r="1.4" fill="white" fill-opacity="0.12"/>
<circle cx="280" cy="364" r="1.4" fill="white" fill-opacity="0.12"/>
<circle cx="280" cy="392" r="1.4" fill="white" fill-opacity="0.12"/>
<circle cx="308" cy="0" r="1.4" fill="white" fill-opacity="0.12"/>
<circle cx="308" cy="28" r="1.4" fill="white" fill-opacity="0.12"/>
<circle cx="308" cy="56" r="1.4" fill="white" fill-opacity="0.12"/>
<circle cx="308" cy="84" r="1.4" fill="white" fill-opacity="0.12"/>
<circle cx="308" cy="112" r="1.4" fill="white" fill-opacity="0.12"/>
<circle cx="308" cy="140" r="1.4" fill="white" fill-opacity="0.12"/>
<circle cx="308" cy="168" r="1.4" fill="white" fill-opacity="0.12"/>
<circle cx="308" cy="196" r="1.4" fill="white" fill-opacity="0.12"/>
<circle cx="308" cy="224" r="1.4" fill="white" fill-opacity="0.12"/>
<circle cx="308" cy="252" r="1.4" fill="white" fill-opacity="0.12"/>
<circle cx="308" cy="280" r="1.4" fill="white" fill-opacity="0.12"/>
<circle cx="308" cy="308" r="1.4" fill="white" fill-opacity="0.12"/>
<circle cx="308" cy="336" r="1.4" fill="white" fill-opacity="0.12"/>
<circle cx="308" cy="364" r="1.4" fill="white" fill-opacity="0.12"/>
<circle cx="308" cy="392" r="1.4" fill="white" fill-opacity="0.12"/>
<circle cx="336" cy="0" r="1.4" fill="white" fill-opacity="0.12"/>
<circle cx="336" cy="28" r="1.4" fill="white" fill-opacity="0.12"/>
<circle cx="336" cy="56" r="1.4" fill="white" fill-opacity="0.12"/>
<circle cx="336" cy="84" r="1.4" fill="white" fill-opacity="0.12"/>
<circle cx="336" cy="112" r="1.4" fill="white" fill-opacity="0.12"/>
<circle cx="336" cy="140" r="1.4" fill="white" fill-opacity="0.12"/>
<circle cx="336" cy="168" r="1.4" fill="white" fill-opacity="0.12"/>
<circle cx="336" cy="196" r="1.4" fill="white" fill-opacity="0.12"/>
<circle cx="336" cy="224" r="1.4" fill="white" fill-opacity="0.12"/>
<circle cx="336" cy="252" r="1.4" fill="white" fill-opacity="0.12"/>
<circle cx="336" cy="280" r="1.4" fill="white" fill-opacity="0.12"/>
<circle cx="336" cy="308" r="1.4" fill="white" fill-opacity="0.12"/>
<circle cx="336" cy="336" r="1.4" fill="white" fill-opacity="0.12"/>
<circle cx="336" cy="364" r="1.4" fill="white" fill-opacity="0.12"/>
<circle cx="336" cy="392" r="1.4" fill="white" fill-opacity="0.12"/>
<circle cx="364" cy="0" r="1.4" fill="white" fill-opacity="0.12"/>
<circle cx="364" cy="28" r="1.4" fill="white" fill-opacity="0.12"/>
<circle cx="364" cy="56" r="1.4" fill="white" fill-opacity="0.12"/>
<circle cx="364" cy="84" r="1.4" fill="white" fill-opacity="0.12"/>
<circle cx="364" cy="112" r="1.4" fill="white" fill-opacity="0.12"/>
<circle cx="364" cy="140" r="1.4" fill="white" fill-opacity="0.12"/>
<circle cx="364" cy="168" r="1.4" fill="white" fill-opacity="0.12"/>
<circle cx="364" cy="196" r="1.4" fill="white" fill-opacity="0.12"/>
<circle cx="364" cy="224" r="1.4" fill="white" fill-opacity="0.12"/>
<circle cx="364" cy="252" r="1.4" fill="white" fill-opacity="0.12"/>
<circle cx="364" cy="280" r="1.4" fill="white" fill-opacity="0.12"/>
<circle cx="364" cy="308" r="1.4" fill="white" fill-opacity="0.12"/>
<circle cx="364" cy="336" r="1.4" fill="white" fill-opacity="0.12"/>
<circle cx="364" cy="364" r="1.4" fill="white" fill-opacity="0.12"/>
<circle cx="364" cy="392" r="1.4" fill="white" fill-opacity="0.12"/>
<circle cx="392" cy="0" r="1.4" fill="white" fill-opacity="0.12"/>
<circle cx="392" cy="28" r="1.4" fill="white" fill-opacity="0.12"/>
<circle cx="392" cy="56" r="1.4" fill="white" fill-opacity="0.12"/>
<circle cx="392" cy="84" r="1.4" fill="white" fill-opacity="0.12"/>
<circle cx="392" cy="112" r="1.4" fill="white" fill-opacity="0.12"/>
<circle cx="392" cy="140" r="1.4" fill="white" fill-opacity="0.12"/>
<circle cx="392" cy="168" r="1.4" fill="white" fill-opacity="0.12"/>
<circle cx="392" cy="196" r="1.4" fill="white" fill-opacity="0.12"/>
<circle cx="392" cy="224" r="1.4" fill="white" fill-opacity="0.12"/>
<circle cx="392" cy="252" r="1.4" fill="white" fill-opacity="0.12"/>
<circle cx="392" cy="280" r="1.4" fill="white" fill-opacity="0.12"/>
<circle cx="392" cy="308" r="1.4" fill="white" fill-opacity="0.12"/>
<circle cx="392" cy="336" r="1.4" fill="white" fill-opacity="0.12"/>
<circle cx="392" cy="364" r="1.4" fill="white" fill-opacity="0.12"/>
<circle cx="392" cy="392" r="1.4" fill="white" fill-opacity="0.12"/>
<circle cx="420" cy="0" r="1.4" fill="white" fill-opacity="0.12"/>
<circle cx="420" cy="28" r="1.4" fill="white" fill-opacity="0.12"/>
<circle cx="420" cy="56" r="1.4" fill="white" fill-opacity="0.12"/>
<circle cx="420" cy="84" r="1.4" fill="white" fill-opacity="0.12"/>
<circle cx="420" cy="112" r="1.4" fill="white" fill-opacity="0.12"/>
<circle cx="420" cy="140" r="1.4" fill="white" fill-opacity="0.12"/>
<circle cx="420" cy="168" r="1.4" fill="white" fill-opacity="0.12"/>
<circle cx="420" cy="196" r="1.4" fill="white" fill-opacity="0.12"/>
<circle cx="420" cy="224" r="1.4" fill="white" fill-opacity="0.12"/>
<circle cx="420" cy="252" r="1.4" fill="white" fill-opacity="0.12"/>
<circle cx="420" cy="280" r="1.4" fill="white" fill-opacity="0.12"/>
<circle cx="420" cy="308" r="1.4" fill="white" fill-opacity="0.12"/>
<circle cx="420" cy="336" r="1.4" fill="white" fill-opacity="0.12"/>
<circle cx="420" cy="364" r="1.4" fill="white" fill-opacity="0.12"/>
<circle cx="420" cy="392" r="1.4" fill="white" fill-opacity="0.12"/>
<circle cx="448" cy="0" r="1.4" fill="white" fill-opacity="0.12"/>
<circle cx="448" cy="28" r="1.4" fill="white" fill-opacity="0.12"/>
<circle cx="448" cy="56" r="1.4" fill="white" fill-opacity="0.12"/>
<circle cx="448" cy="84" r="1.4" fill="white" fill-opacity="0.12"/>
<circle cx="448" cy="112" r="1.4" fill="white" fill-opacity="0.12"/>
<circle cx="448" cy="140" r="1.4" fill="white" fill-opacity="0.12"/>
<circle cx="448" cy="168" r="1.4" fill="white" fill-opacity="0.12"/>
<circle cx="448" cy="196" r="1.4" fill="white" fill-opacity="0.12"/>
<circle cx="448" cy="224" r="1.4" fill="white" fill-opacity="0.12"/>
<circle cx="448" cy="252" r="1.4" fill="white" fill-opacity="0.12"/>
<circle cx="448" cy="280" r="1.4" fill="white" fill-opacity="0.12"/>
<circle cx="448" cy="308" r="1.4" fill="white" fill-opacity="0.12"/>
<circle cx="448" cy="336" r="1.4" fill="white" fill-opacity="0.12"/>
<circle cx="448" cy="364" r="1.4" fill="white" fill-opacity="0.12"/>
<circle cx="448" cy="392" r="1.4" fill="white" fill-opacity="0.12"/>
<circle cx="476" cy="0" r="1.4" fill="white" fill-opacity="0.12"/>
<circle cx="476" cy="28" r="1.4" fill="white" fill-opacity="0.12"/>
<circle cx="476" cy="56" r="1.4" fill="white" fill-opacity="0.12"/>
<circle cx="476" cy="84" r="1.4" fill="white" fill-opacity="0.12"/>
<circle cx="476" cy="112" r="1.4" fill="white" fill-opacity="0.12"/>
<circle cx="476" cy="140" r="1.4" fill="white" fill-opacity="0.12"/>
<circle cx="476" cy="168" r="1.4" fill="white" fill-opacity="0.12"/>
<circle cx="476" cy="196" r="1.4" fill="white" fill-opacity="0.12"/>
<circle cx="476" cy="224" r="1.4" fill="white" fill-opacity="0.12"/>
<circle cx="476" cy="252" r="1.4" fill="white" fill-opacity="0.12"/>
<circle cx="476" cy="280" r="1.4" fill="white" fill-opacity="0.12"/>
<circle cx="476" cy="308" r="1.4" fill="white" fill-opacity="0.12"/>
<circle cx="476" cy="336" r="1.4" fill="white" fill-opacity="0.12"/>
<circle cx="476" cy="364" r="1.4" fill="white" fill-opacity="0.12"/>
<circle cx="476" cy="392" r="1.4" fill="white" fill-opacity="0.12"/>
<circle cx="504" cy="0" r="1.4" fill="white" fill-opacity="0.12"/>
<circle cx="504" cy="28" r="1.4" fill="white" fill-opacity="0.12"/>
<circle cx="504" cy="56" r="1.4" fill="white" fill-opacity="0.12"/>
<circle cx="504" cy="84" r="1.4" fill="white" fill-opacity="0.12"/>
<circle cx="504" cy="112" r="1.4" fill="white" fill-opacity="0.12"/>
<circle cx="504" cy="140" r="1.4" fill="white" fill-opacity="0.12"/>
<circle cx="504" cy="168" r="1.4" fill="white" fill-opacity="0.12"/>
<circle cx="504" cy="196" r="1.4" fill="white" fill-opacity="0.12"/>
<circle cx="504" cy="224" r="1.4" fill="white" fill-opacity="0.12"/>
<circle cx="504" cy="252" r="1.4" fill="white" fill-opacity="0.12"/>
<circle cx="504" cy="280" r="1.4" fill="white" fill-opacity="0.12"/>
<circle cx="504" cy="308" r="1.4" fill="white" fill-opacity="0.12"/>
<circle cx="504" cy="336" r="1.4" fill="white" fill-opacity="0.12"/>
<circle cx="504" cy="364" r="1.4" fill="white" fill-opacity="0.12"/>
<circle cx="504" cy="392" r="1.4" fill="white" fill-opacity="0.12"/>
<circle cx="532" cy="0" r="1.4" fill="white" fill-opacity="0.12"/>
<circle cx="532" cy="28" r="1.4" fill="white" fill-opacity="0.12"/>
<circle cx="532" cy="56" r="1.4" fill="white" fill-opacity="0.12"/>
<circle cx="532" cy="84" r="1.4" fill="white" fill-opacity="0.12"/>
<circle cx="532" cy="112" r="1.4" fill="white" fill-opacity="0.12"/>
<circle cx="532" cy="140" r="1.4" fill="white" fill-opacity="0.12"/>
<circle cx="532" cy="168" r="1.4" fill="white" fill-opacity="0.12"/>
<circle cx="532" cy="196" r="1.4" fill="white" fill-opacity="0.12"/>
<circle cx="532" cy="224" r="1.4" fill="white" fill-opacity="0.12"/>
<circle cx="532" cy="252" r="1.4" fill="white" fill-opacity="0.12"/>
<circle cx="532" cy="280" r="1.4" fill="white" fill-opacity="0.12"/>
<circle cx="532" cy="308" r="1.4" fill="white" fill-opacity="0.12"/>
<circle cx="532" cy="336" r="1.4" fill="white" fill-opacity="0.12"/>
<circle cx="532" cy="364" r="1.4" fill="white" fill-opacity="0.12"/>
<circle cx="532" cy="392" r="1.4" fill="white" fill-opacity="0.12"/>
<circle cx="560" cy="0" r="1.4" fill="white" fill-opacity="0.12"/>
<circle cx="560" cy="28" r="1.4" fill="white" fill-opacity="0.12"/>
<circle cx="560" cy="56" r="1.4" fill="white" fill-opacity="0.12"/>
<circle cx="560" cy="84" r="1.4" fill="white" fill-opacity="0.12"/>
<circle cx="560" cy="112" r="1.4" fill="white" fill-opacity="0.12"/>
<circle cx="560" cy="140" r="1.4" fill="white" fill-opacity="0.12"/>
<circle cx="560" cy="168" r="1.4" fill="white" fill-opacity="0.12"/>
<circle cx="560" cy="196" r="1.4" fill="white" fill-opacity="0.12"/>
<circle cx="560" cy="224" r="1.4" fill="white" fill-opacity="0.12"/>
<circle cx="560" cy="252" r="1.4" fill="white" fill-opacity="0.12"/>
<circle cx="560" cy="280" r="1.4" fill="white" fill-opacity="0.12"/>
<circle cx="560" cy="308" r="1.4" fill="white" fill-opacity="0.12"/>
<circle cx="560" cy="336" r="1.4" fill="white" fill-opacity="0.12"/>
<circle cx="560" cy="364" r="1.4" fill="white" fill-opacity="0.12"/>
<circle cx="560" cy="392" r="1.4" fill="white" fill-opacity="0.12"/>
<circle cx="588" cy="0" r="1.4" fill="white" fill-opacity="0.12"/>
<circle cx="588" cy="28" r="1.4" fill="white" fill-opacity="0.12"/>
<circle cx="588" cy="56" r="1.4" fill="white" fill-opacity="0.12"/>
<circle cx="588" cy="84" r="1.4" fill="white" fill-opacity="0.12"/>
<circle cx="588" cy="112" r="1.4" fill="white" fill-opacity="0.12"/>
<circle cx="588" cy="140" r="1.4" fill="white" fill-opacity="0.12"/>
<circle cx="588" cy="168" r="1.4" fill="white" fill-opacity="0.12"/>
<circle cx="588" cy="196" r="1.4" fill="white" fill-opacity="0.12"/>
<circle cx="588" cy="224" r="1.4" fill="white" fill-opacity="0.12"/>
<circle cx="588" cy="252" r="1.4" fill="white" fill-opacity="0.12"/>
<circle cx="588" cy="280" r="1.4" fill="white" fill-opacity="0.12"/>
<circle cx="588" cy="308" r="1.4" fill="white" fill-opacity="0.12"/>
<circle cx="588" cy="336" r="1.4" fill="white" fill-opacity="0.12"/>
<circle cx="588" cy="364" r="1.4" fill="white" fill-opacity="0.12"/>
<circle cx="588" cy="392" r="1.4" fill="white" fill-opacity="0.12"/>

  <rect x="50" y="112.0" width="14" height="176" rx="4" fill="white" fill-opacity="0.8388888888888888"/>
<rect x="70" y="181.0" width="14" height="38" rx="4" fill="white" fill-opacity="0.45555555555555555"/>
<rect x="90" y="130.5" width="14" height="139" rx="4" fill="white" fill-opacity="0.7361111111111112"/>
<rect x="110" y="123.5" width="14" height="153" rx="4" fill="white" fill-opacity="0.7749999999999999"/>
<rect x="130" y="111.5" width="14" height="177" rx="4" fill="white" fill-opacity="0.8416666666666666"/>
<rect x="150" y="183.5" width="14" height="33" rx="4" fill="white" fill-opacity="0.44166666666666665"/>
<rect x="170" y="159.0" width="14" height="82" rx="4" fill="white" fill-opacity="0.5777777777777777"/>
<rect x="190" y="126.0" width="14" height="148" rx="4" fill="white" fill-opacity="0.7611111111111111"/>
<rect x="210" y="122.5" width="14" height="155" rx="4" fill="white" fill-opacity="0.7805555555555556"/>
<rect x="230" y="149.5" width="14" height="101" rx="4" fill="white" fill-opacity="0.6305555555555555"/>
<rect x="250" y="164.5" width="14" height="71" rx="4" fill="white" fill-opacity="0.5472222222222222"/>
<rect x="270" y="181.0" width="14" height="38" rx="4" fill="white" fill-opacity="0.45555555555555555"/>
<rect x="290" y="118.5" width="14" height="163" rx="4" fill="white" fill-opacity="0.8027777777777778"/>
<rect x="310" y="122.5" width="14" height="155" rx="4" fill="white" fill-opacity="0.7805555555555556"/>
<rect x="330" y="143.5" width="14" height="113" rx="4" fill="white" fill-opacity="0.6638888888888889"/>
<rect x="350" y="175.5" width="14" height="49" rx="4" fill="white" fill-opacity="0.48611111111111105"/>
<rect x="370" y="153.5" width="14" height="93" rx="4" fill="white" fill-opacity="0.6083333333333334"/>
<rect x="390" y="139.0" width="14" height="122" rx="4" fill="white" fill-opacity="0.6888888888888889"/>
<rect x="410" y="179.5" width="14" height="41" rx="4" fill="white" fill-opacity="0.46388888888888885"/>
<rect x="430" y="131.5" width="14" height="137" rx="4" fill="white" fill-opacity="0.7305555555555555"/>
<rect x="450" y="167.5" width="14" height="65" rx="4" fill="white" fill-opacity="0.5305555555555556"/>
<rect x="470" y="140.0" width="14" height="120" rx="4" fill="white" fill-opacity="0.6833333333333333"/>
<rect x="490" y="136.5" width="14" height="127" rx="4" fill="white" fill-opacity="0.7027777777777777"/>
<rect x="510" y="131.5" width="14" height="137" rx="4" fill="white" fill-opacity="0.7305555555555555"/>
<rect x="530" y="149.0" width="14" height="102" rx="4" fill="white" fill-opacity="0.6333333333333333"/>
<rect x="550" y="151.5" width="14" height="97" rx="4" fill="white" fill-opacity="0.6194444444444445"/>
<rect x="570" y="127.0" width="14" height="146" rx="4" fill="white" fill-opacity="0.7555555555555555"/>
<rect x="590" y="163.0" width="14" height="74" rx="4" fill="white" fill-opacity="0.5555555555555556"/>

  <text x="30" y="370" font-family="Arial, sans-serif" font-size="20" font-weight="600" fill="white" opacity="0.85">Cloud Frequencies · Gemini + Imagen</text>
</svg>