<svg width="600" height="400" viewBox="0 0 600 400" xmlns="http://www.w3.org/2000/svg">
  <defs>
    <linearGradient id="gredshifttf" x1="0%" y1="0%" x2="100%" y2="100%">
      <stop offset="0%" stop-color="#623CE4"/>
      <stop offset="100%" stop-color="#8250DF"/>
    </linearGradient>
    <marker id="arrow" markerWidth="8" markerHeight="8" refX="4" refY="4" orient="auto">
      <path d="M0,0 L8,4 L0,8 Z" fill="white" fill-opacity="0.6"/>
    </marker>
  </defs>
  <rect width="600" height="400" fill="url(#gredshifttf)"/>
  <circle cx="0" cy="0" r="1.4" fill="white" fill-opacity="0.12"/>
<circle cx="0" cy="28" r="1.4" fill="white" fill-opacity="0.12"/>
<circle cx="0" cy="56" r="1.4" fill="white" fill-opacity="0.12"/>
<circle cx="0" cy="84" r="1.4" fill="white" fill-opacity="0.12"/>
<circle cx="0" cy="112" r="1.4" fill="white" fill-opacity="0.12"/>
<circle cx="0" cy="140" r="1.4" fill="white" fill-opacity="0.12"/>
<circle cx="0" cy="168" r="1.4" fill="white" fill-opacity="0.12"/>
<circle cx="0" cy="196" r="1.4" fill="white" fill-opacity="0.12"/>
<circle cx="0" cy="224" r="1.4" fill="white" fill-opacity="0.12"/>
<circle cx="0" cy="252" r="1.4" fill="white" fill-opacity="0.12"/>
<circle cx="0" cy="280" r="1.4" fill="white" fill-opacity="0.12"/>
<circle cx="0" cy="308" r="1.4" fill="white" fill-opacity="0.12"/>
<circle cx="0" cy="336" r="1.4" fill="white" fill-opacity="0.12"/>
<circle cx="0" cy="364" r="1.4" fill="white" fill-opacity="0.12"/>
<circle cx="0" cy="392" r="1.4" fill="white" fill-opacity="0.12"/>
<circle cx="28" cy="0" r="1.4" fill="white" fill-opacity="0.12"/>
<circle cx="28" cy="28" r="1.4" fill="white" fill-opacity="0.12"/>
<circle cx="28" cy="56" r="1.4" fill="white" fill-opacity="0.12"/>
<circle cx="28" cy="84" r="1.4" fill="white" fill-opacity="0.12"/>
<circle cx="28" cy="112" r="1.4" fill="white" fill-opacity="0.12"/>
<circle cx="28" cy="140" r="1.4" fill="white" fill-opacity="0.12"/>
<circle cx="28" cy="168" r="1.4" fill="white" fill-opacity="0.12"/>
<circle cx="28" cy="196" r="1.4" fill="white" fill-opacity="0.12"/>
<circle cx="28" cy="224" r="1.4" fill="white" fill-opacity="0.12"/>
<circle cx="28" cy="252" r="1.4" fill="white" fill-opacity="0.12"/>
<circle cx="28" cy="280" r="1.4" fill="white" fill-opacity="0.12"/>
<circle cx="28" cy="308" r="1.4" fill="white" fill-opacity="0.12"/>
<circle cx="28" cy="336" r="1.4" fill="white" fill-opacity="0.12"/>
<circle cx="28" cy="364" r="1.4" fill="white" fill-opacity="0.12"/>
<circle cx="28" cy="392" r="1.4" fill="white" fill-opacity="0.12"/>
<circle cx="56" cy="0" r="1.4" fill="white" fill-opacity="0.12"/>
<circle cx="56" cy="28" r="1.4" fill="white" fill-opacity="0.12"/>
<circle cx="56" cy="56" r="1.4" fill="white" fill-opacity="0.12"/>
<circle cx="56" cy="84" r="1.4" fill="white" fill-opacity="0.12"/>
<circle cx="56" cy="112" r="1.4" fill="white" fill-opacity="0.12"/>
<circle cx="56" cy="140" r="1.4" fill="white" fill-opacity="0.12"/>
<circle cx="56" cy="168" r="1.4" fill="white" fill-opacity="0.12"/>
<circle cx="56" cy="196" r="1.4" fill="white" fill-opacity="0.12"/>
<circle cx="56" cy="224" r="1.4" fill="white" fill-opacity="0.12"/>
<circle cx="56" cy="252" r="1.4" fill="white" fill-opacity="0.12"/>
<circle cx="56" cy="280" r="1.4" fill="white" fill-opacity="0.12"/>
<circle cx="56" cy="308" r="1.4" fill="white" fill-opacity="0.12"/>
<circle cx="56" cy="336" r="1.4" fill="white" fill-opacity="0.12"/>
<circle cx="56" cy="364" r="1.4" fill="white" fill-opacity="0.12"/>
<circle cx="56" cy="392" r="1.4" fill="white" fill-opacity="0.12"/>
<circle cx="84" cy="0" r="1.4" fill="white" fill-opacity="0.12"/>
<circle cx="84" cy="28" r="1.4" fill="white" fill-opacity="0.12"/>
<circle cx="84" cy="56" r="1.4" fill="white" fill-opacity="0.12"/>
<circle cx="84" cy="84" r="1.4" fill="white" fill-opacity="0.12"/>
<circle cx="84" cy="112" r="1.4" fill="white" fill-opacity="0.12"/>
<circle cx="84" cy="140" r="1.4" fill="white" fill-opacity="0.12"/>
<circle cx="84" cy="168" r="1.4" fill="white" fill-opacity="0.12"/>
<circle cx="84" cy="196" r="1.4" fill="white" fill-opacity="0.12"/>
<circle cx="84" cy="224" r="1.4" fill="white" fill-opacity="0.12"/>
<circle cx="84" cy="252" r="1.4" fill="white" fill-opacity="0.12"/>
<circle cx="84" cy="280" r="1.4" fill="white" fill-opacity="0.12"/>
<circle cx="84" cy="308" r="1.4" fill="white" fill-opacity="0.12"/>
<circle cx="84" cy="336" r="1.4" fill="white" fill-opacity="0.12"/>
<circle cx="84" cy="364" r="1.4" fill="white" fill-opacity="0.12"/>
<circle cx="84" cy="392" r="1.4" fill="white" fill-opacity="0.12"/>
<circle cx="112" cy="0" r="1.4" fill="white" fill-opacity="0.12"/>
<circle cx="112" cy="28" r="1.4" fill="white" fill-opacity="0.12"/>
<circle cx="112" cy="56" r="1.4" fill="white" fill-opacity="0.12"/>
<circle cx="112" cy="84" r="1.4" fill="white" fill-opacity="0.12"/>
<circle cx="112" cy="112" r="1.4" fill="white" fill-opacity="0.12"/>
<circle cx="112" cy="140" r="1.4" fill="white" fill-opacity="0.12"/>
<circle cx="112" cy="168" r="1.4" fill="white" fill-opacity="0.12"/>
<circle cx="112" cy="196" r="1.4" fill="white" fill-opacity="0.12"/>
<circle cx="112" cy="224" r="1.4" fill="white" fill-opacity="0.12"/>
<circle cx="112" cy="252" r="1.4" fill="white" fill-opacity="0.12"/>
<circle cx="112" cy="280" r="1.4" fill="white" fill-opacity="0.12"/>
<circle cx="112" cy="308" r="1.4" fill="white" fill-opacity="0.12"/>
<circle cx="112" cy="336" r="1.4" fill="white" fill-opacity="0.12"/>
<circle cx="112" cy="364" r="1.4" fill="white" fill-opacity="0.12"/>
<circle cx="112" cy="392" r="1.4" fill="white" fill-opacity="0.12"/>
<circle cx="140" cy="0" r="1.4" fill="white" fill-opacity="0.12"/>
<circle cx="140" cy="28" r="1.4" fill="white" fill-opacity="0.12"/>
<circle cx="140" cy="56" r="1.4" fill="white" fill-opacity="0.12"/>
<circle cx="140" cy="84" r="1.4" fill="white" fill-opacity="0.12"/>
<circle cx="140" cy="112" r="1.4" fill="white" fill-opacity="0.12"/>
<circle cx="140" cy="140" r="1.4" fill="white" fill-opacity="0.12"/>
<circle cx="140" cy="168" r="1.4" fill="white" fill-opacity="0.12"/>
<circle cx="140" cy="196" r="1.4" fill="white" fill-opacity="0.12"/>
<circle cx="140" cy="224" r="1.4" fill="white" fill-opacity="0.12"/>
<circle cx="140" cy="252" r="1.4" fill="white" fill-opacity="0.12"/>
<circle cx="140" cy="280" r="1.4" fill="white" fill-opacity="0.12"/>
<circle cx="140" cy="308" r="1.4" fill="white" fill-opacity="0.12"/>
<circle cx="140" cy="336" r="1.4" fill="white" fill-opacity="0.12"/>
<circle cx="140" cy="364" r="1.4" fill="white" fill-opacity="0.12"/>
<circle cx="140" cy="392" r="1.4" fill="white" fill-opacity="0.12"/>
<circle cx="168" cy="0" r="1.4" fill="white" fill-opacity="0.12"/>
<circle cx="168" cy="28" r="1.4" fill="white" fill-opacity="0.12"/>
<circle cx="168" cy="56" r="1.4" fill="white" fill-opacity="0.12"/>
<circle cx="168" cy="84" r="1.4" fill="white" fill-opacity="0.12"/>
<circle cx="168" cy="112" r="1.4" fill="white" fill-opacity="0.12"/>
<circle cx="168" cy="140" r="1.4" fill="white" fill-opacity="0.12"/>
<circle cx="168" cy="168" r="1.4" fill="white" fill-opacity="0.12"/>
<circle cx="168" cy="196" r="1.4" fill="white" fill-opacity="0.12"/>
<circle cx="168" cy="224" r="1.4" fill="white" fill-opacity="0.12"/>
<circle cx="168" cy="252" r="1.4" fill="white" fill-opacity="0.12"/>
<circle cx="168" cy="280" r="1.4" fill="white" fill-opacity="0.12"/>
<circle cx="168" cy="308" r="1.4" fill="white" fill-opacity="0.12"/>
<circle cx="168" cy="336" r="1.4" fill="white" fill-opacity="0.12"/>
<circle cx="168" cy="364" r="1.4" fill="white" fill-opacity="0.12"/>
<circle cx="168" cy="392" r="1.4" fill="white" fill-opacity="0.12"/>
<circle cx="196" cy="0" r="1.4" fill="white" fill-opacity="0.12"/>
<circle cx="196" cy="28" r="1.4" fill="white" fill-opacity="0.12"/>
<circle cx="196" cy="56" r="1.4" fill="white" fill-opacity="0.12"/>
<circle cx="196" cy="84" r="1.4" fill="white" fill-opacity="0.12"/>
<circle cx="196" cy="112" r="1.4" fill="white" fill-opacity="0.12"/>
<circle cx="196" cy="140" r="1.4" fill="white" fill-opacity="0.12"/>
<circle cx="196" cy="168" r="1.4" fill="white" fill-opacity="0.12"/>
<circle cx="196" cy="196" r="1.4" fill="white" fill-opacity="0.12"/>
<circle cx="196" cy="224" r="1.4" fill="white" fill-opacity="0.12"/>
<circle cx="196" cy="252" r="1.4" fill="white" fill-opacity="0.12"/>
<circle cx="196" cy="280" r="1.4" fill="white" fill-opacity="0.12"/>
<circle cx="196" cy="308" r="1.4" fill="white" fill-opacity="0.12"/>
<circle cx="196" cy="336" r="1.4" fill="white" fill-opacity="0.12"/>
<circle cx="196" cy="364" r="1.4" fill="white" fill-opacity="0.12"/>
<circle cx="196" cy="392" r="1.4" fill="white" fill-opacity="0.12"/>
<circle cx="224" cy="0" r="1.4" fill="white" fill-opacity="0.12"/>
<circle cx="224" cy="28" r="1.4" fill="white" fill-opacity="0.12"/>
<circle cx="224" cy="56" r="1.4" fill="white" fill-opacity="0.12"/>
<circle cx="224" cy="84" r="1.4" fill="white" fill-opacity="0.12"/>
<circle cx="224" cy="112" r="1.4" fill="white" fill-opacity="0.12"/>
<circle cx="224" cy="140" r="1.4" fill="white" fill-opacity="0.12"/>
<circle cx="224" cy="168" r="1.4" fill="white" fill-opacity="0.12"/>
<circle cx="224" cy="196" r="1.4" fill="white" fill-opacity="0.12"/>
<circle cx="224" cy="224" r="1.4" fill="white" fill-opacity="0.12"/>
<circle cx="224" cy="252" r="1.4" fill="white" fill-opacity="0.12"/>
<circle cx="224" cy="280" r="1.4" fill="white" fill-opacity="0.12"/>
<circle cx="224" cy="308" r="1.4" fill="white" fill-opacity="0.12"/>
<circle cx="224" cy="336" r="1.4" fill="white" fill-opacity="0.12"/>
<circle cx="224" cy="364" r="1.4" fill="white" fill-opacity="0.12"/>
<circle cx="224" cy="392" r="1.4" fill="white" fill-opacity="0.12"/>
<circle cx="252" cy="0" r="1.4" fill="white" fill-opacity="0.12"/>
<circle cx="252" cy="28" r="1.4" fill="white" fill-opacity="0.12"/>
<circle cx="252" cy="56" r="1.4" fill="white" fill-opacity="0.12"/>
<circle cx="252" cy="84" r="1.4" fill="white" fill-opacity="0.12"/>
<circle cx="252" cy="112" r="1.4" fill="white" fill-opacity="0.12"/>
<circle cx="252" cy="140" r="1.4" fill="white" fill-opacity="0.12"/>
<circle cx="252" cy="168" r="1.4" fill="white" fill-opacity="0.12"/>
<circle cx="252" cy="196" r="1.4" fill="white" fill-opacity="0.12"/>
<circle cx="252" cy="224" r="1.4" fill="white" fill-opacity="0.12"/>
<circle cx="252" cy="252" r="1.4" fill="white" fill-opacity="0.12"/>
<circle cx="252" cy="280" r="1.4" fill="white" fill-opacity="0.12"/>
<circle cx="252" cy="308" r="1.4" fill="white" fill-opacity="0.12"/>
<circle cx="252" cy="336" r="1.4" fill="white" fill-opacity="0.12"/>
<circle cx="252" cy="364" r="1.4" fill="white" fill-opacity="0.12"/>
<circle cx="252" cy="392" r="1.4" fill="white" fill-opacity="0.12"/>
<circle cx="280" cy="0" r="1.4" fill="white" fill-opacity="0.12"/>
<circle cx="280" cy="28" r="1.4" fill="white" fill-opacity="0.12"/>
<circle cx="280" cy="56" r="1.4" fill="white" fill-opacity="0.12"/>
<circle cx="280" cy="84" r="1.4" fill="white" fill-opacity="0.12"/>
<circle cx="280" cy="112" r="1.4" fill="white" fill-opacity="0.12"/>
<circle cx="280" cy="140" r="1.4" fill="white" fill-opacity="0.12"/>
<circle cx="280" cy="168" r="1.4" fill="white" fill-opacity="0.12"/>
<circle cx="280" cy="196" r="1.4" fill="white" fill-opacity="0.12"/>
<circle cx="280" cy="224" r="1.4" fill="white" fill-opacity="0.12"/>
<circle cx="280" cy="252" r="1.4" fill="white" fill-opacity="0.12"/>
<circle cx="280" cy="280" r="1.4" fill="white" fill-opacity="0.12"/>
<circle cx="280" cy="308" r="1.4" fill="white" fill-opacity="0.12"/>
<circle cx="280" cy="336" r="1.4" fill="white" fill-opacity="0.12"/>
<circle cx="280" cy="364" r="1.4" fill="white" fill-opacity="0.12"/>
<circle cx="280" cy="392" r="1.4" fill="white" fill-opacity="0.12"/>
<circle cx="308" cy="0" r="1.4" fill="white" fill-opacity="0.12"/>
<circle cx="308" cy="28" r="1.4" fill="white" fill-opacity="0.12"/>
<circle cx="308" cy="56" r="1.4" fill="white" fill-opacity="0.12"/>
<circle cx="308" cy="84" r="1.4" fill="white" fill-opacity="0.12"/>
<circle cx="308" cy="112" r="1.4" fill="white" fill-opacity="0.12"/>
<circle cx="308" cy="140" r="1.4" fill="white" fill-opacity="0.12"/>
<circle cx="308" cy="168" r="1.4" fill="white" fill-opacity="0.12"/>
<circle cx="308" cy="196" r="1.4" fill="white" fill-opacity="0.12"/>
<circle cx="308" cy="224" r="1.4" fill="white" fill-opacity="0.12"/>
<circle cx="308" cy="252" r="1.4" fill="white" fill-opacity="0.12"/>
<circle cx="308" cy="280" r="1.4" fill="white" fill-opacity="0.12"/>
<circle cx="308" cy="308" r="1.4" fill="white" fill-opacity="0.12"/>
<circle cx="308" cy="336" r="1.4" fill="white" fill-opacity="0.12"/>
<circle cx="308" cy="364" r="1.4" fill="white" fill-opacity="0.12"/>
<circle cx="308" cy="392" r="1.4" fill="white" fill-opacity="0.12"/>
<circle cx="336" cy="0" r="1.4" fill="white" fill-opacity="0.12"/>
<circle cx="336" cy="28" r="1.4" fill="white" fill-opacity="0.12"/>
<circle cx="336" cy="56" r="1.4" fill="white" fill-opacity="0.12"/>
<circle cx="336" cy="84" r="1.4" fill="white" fill-opacity="0.12"/>
<circle cx="336" cy="112" r="1.4" fill="white" fill-opacity="0.12"/>
<circle cx="336" cy="140" r="1.4" fill="white" fill-opacity="0.12"/>
<circle cx="336" cy="168" r="1.4" fill="white" fill-opacity="0.12"/>
<circle cx="336" cy="196" r="1.4" fill="white" fill-opacity="0.12"/>
<circle cx="336" cy="224" r="1.4" fill="white" fill-opacity="0.12"/>
<circle cx="336" cy="252" r="1.4" fill="white" fill-opacity="0.12"/>
<circle cx="336" cy="280" r="1.4" fill="white" fill-opacity="0.12"/>
<circle cx="336" cy="308" r="1.4" fill="white" fill-opacity="0.12"/>
<circle cx="336" cy="336" r="1.4" fill="white" fill-opacity="0.12"/>
<circle cx="336" cy="364" r="1.4" fill="white" fill-opacity="0.12"/>
<circle cx="336" cy="392" r="1.4" fill="white" fill-opacity="0.12"/>
<circle cx="364" cy="0" r="1.4" fill="white" fill-opacity="0.12"/>
<circle cx="364" cy="28" r="1.4" fill="white" fill-opacity="0.12"/>
<circle cx="364" cy="56" r="1.4" fill="white" fill-opacity="0.12"/>
<circle cx="364" cy="84" r="1.4" fill="white" fill-opacity="0.12"/>
<circle cx="364" cy="112" r="1.4" fill="white" fill-opacity="0.12"/>
<circle cx="364" cy="140" r="1.4" fill="white" fill-opacity="0.12"/>
<circle cx="364" cy="168" r="1.4" fill="white" fill-opacity="0.12"/>
<circle cx="364" cy="196" r="1.4" fill="white" fill-opacity="0.12"/>
<circle cx="364" cy="224" r="1.4" fill="white" fill-opacity="0.12"/>
<circle cx="364" cy="252" r="1.4" fill="white" fill-opacity="0.12"/>
<circle cx="364" cy="280" r="1.4" fill="white" fill-opacity="0.12"/>
<circle cx="364" cy="308" r="1.4" fill="white" fill-opacity="0.12"/>
<circle cx="364" cy="336" r="1.4" fill="white" fill-opacity="0.12"/>
<circle cx="364" cy="364" r="1.4" fill="white" fill-opacity="0.12"/>
<circle cx="364" cy="392" r="1.4" fill="white" fill-opacity="0.12"/>
<circle cx="392" cy="0" r="1.4" fill="white" fill-opacity="0.12"/>
<circle cx="392" cy="28" r="1.4" fill="white" fill-opacity="0.12"/>
<circle cx="392" cy="56" r="1.4" fill="white" fill-opacity="0.12"/>
<circle cx="392" cy="84" r="1.4" fill="white" fill-opacity="0.12"/>
<circle cx="392" cy="112" r="1.4" fill="white" fill-opacity="0.12"/>
<circle cx="392" cy="140" r="1.4" fill="white" fill-opacity="0.12"/>
<circle cx="392" cy="168" r="1.4" fill="white" fill-opacity="0.12"/>
<circle cx="392" cy="196" r="1.4" fill="white" fill-opacity="0.12"/>
<circle cx="392" cy="224" r="1.4" fill="white" fill-opacity="0.12"/>
<circle cx="392" cy="252" r="1.4" fill="white" fill-opacity="0.12"/>
<circle cx="392" cy="280" r="1.4" fill="white" fill-opacity="0.12"/>
<circle cx="392" cy="308" r="1.4" fill="white" fill-opacity="0.12"/>
<circle cx="392" cy="336" r="1.4" fill="white" fill-opacity="0.12"/>
<circle cx="392" cy="364" r="1.4" fill="white" fill-opacity="0.12"/>
<circle cx="392" cy="392" r="1.4" fill="white" fill-opacity="0.12"/>
<circle cx="420" cy="0" r="1.4" fill="white" fill-opacity="0.12"/>
<circle cx="420" cy="28" r="1.4" fill="white" fill-opacity="0.12"/>
<circle cx="420" cy="56" r="1.4" fill="white" fill-opacity="0.12"/>
<circle cx="420" cy="84" r="1.4" fill="white" fill-opacity="0.12"/>
<circle cx="420" cy="112" r="1.4" fill="white" fill-opacity="0.12"/>
<circle cx="420" cy="140" r="1.4" fill="white" fill-opacity="0.12"/>
<circle cx="420" cy="168" r="1.4" fill="white" fill-opacity="0.12"/>
<circle cx="420" cy="196" r="1.4" fill="white" fill-opacity="0.12"/>
<circle cx="420" cy="224" r="1.4" fill="white" fill-opacity="0.12"/>
<circle cx="420" cy="252" r="1.4" fill="white" fill-opacity="0.12"/>
<circle cx="420" cy="280" r="1.4" fill="white" fill-opacity="0.12"/>
<circle cx="420" cy="308" r="1.4" fill="white" fill-opacity="0.12"/>
<circle cx="420" cy="336" r="1.4" fill="white" fill-opacity="0.12"/>
<circle cx="420" cy="364" r="1.4" fill="white" fill-opacity="0.12"/>
<circle cx="420" cy="392" r="1.4" fill="white" fill-opacity="0.12"/>
<circle cx="448" cy="0" r="1.4" fill="white" fill-opacity="0.12"/>
<circle cx="448" cy="28" r="1.4" fill="white" fill-opacity="0.12"/>
<circle cx="448" cy="56" r="1.4" fill="white" fill-opacity="0.12"/>
<circle cx="448" cy="84" r="1.4" fill="white" fill-opacity="0.12"/>
<circle cx="448" cy="112" r="1.4" fill="white" fill-opacity="0.12"/>
<circle cx="448" cy="140" r="1.4" fill="white" fill-opacity="0.12"/>
<circle cx="448" cy="168" r="1.4" fill="white" fill-opacity="0.12"/>
<circle cx="448" cy="196" r="1.4" fill="white" fill-opacity="0.12"/>
<circle cx="448" cy="224" r="1.4" fill="white" fill-opacity="0.12"/>
<circle cx="448" cy="252" r="1.4" fill="white" fill-opacity="0.12"/>
<circle cx="448" cy="280" r="1.4" fill="white" fill-opacity="0.12"/>
<circle cx="448" cy="308" r="1.4" fill="white" fill-opacity="0.12"/>
<circle cx="448" cy="336" r="1.4" fill="white" fill-opacity="0.12"/>
<circle cx="448" cy="364" r="1.4" fill="white" fill-opacity="0.12"/>
<circle cx="448" cy="392" r="1.4" fill="white" fill-opacity="0.12"/>
<circle cx="476" cy="0" r="1.4" fill="white" fill-opacity="0.12"/>
<circle cx="476" cy="28" r="1.4" fill="white" fill-opacity="0.12"/>
<circle cx="476" cy="56" r="1.4" fill="white" fill-opacity="0.12"/>
<circle cx="476" cy="84" r="1.4" fill="white" fill-opacity="0.12"/>
<circle cx="476" cy="112" r="1.4" fill="white" fill-opacity="0.12"/>
<circle cx="476" cy="140" r="1.4" fill="white" fill-opacity="0.12"/>
<circle cx="476" cy="168" r="1.4" fill="white" fill-opacity="0.12"/>
<circle cx="476" cy="196" r="1.4" fill="white" fill-opacity="0.12"/>
<circle cx="476" cy="224" r="1.4" fill="white" fill-opacity="0.12"/>
<circle cx="476" cy="252" r="1.4" fill="white" fill-opacity="0.12"/>
<circle cx="476" cy="280" r="1.4" fill="white" fill-opacity="0.12"/>
<circle cx="476" cy="308" r="1.4" fill="white" fill-opacity="0.12"/>
<circle cx="476" cy="336" r="1.4" fill="white" fill-opacity="0.12"/>
<circle cx="476" cy="364" r="1.4" fill="white" fill-opacity="0.12"/>
<circle cx="476" cy="392" r="1.4" fill="white" fill-opacity="0.12"/>
<circle cx="504" cy="0" r="1.4" fill="white" fill-opacity="0.12"/>
<circle cx="504" cy="28" r="1.4" fill="white" fill-opacity="0.12"/>
<circle cx="504" cy="56" r="1.4" fill="white" fill-opacity="0.12"/>
<circle cx="504" cy="84" r="1.4" fill="white" fill-opacity="0.12"/>
<circle cx="504" cy="112" r="1.4" fill="white" fill-opacity="0.12"/>
<circle cx="504" cy="140" r="1.4" fill="white" fill-opacity="0.12"/>
<circle cx="504" cy="168" r="1.4" fill="white" fill-opacity="0.12"/>
<circle cx="504" cy="196" r="1.4" fill="white" fill-opacity="0.12"/>
<circle cx="504" cy="224" r="1.4" fill="white" fill-opacity="0.12"/>
<circle cx="504" cy="252" r="1.4" fill="white" fill-opacity="0.12"/>
<circle cx="504" cy="280" r="1.4" fill="white" fill-opacity="0.12"/>
<circle cx="504" cy="308" r="1.4" fill="white" fill-opacity="0.12"/>
<circle cx="504" cy="336" r="1.4" fill="white" fill-opacity="0.12"/>
<circle cx="504" cy="364" r="1.4" fill="white" fill-opacity="0.12"/>
<circle cx="504" cy="392" r="1.4" fill="white" fill-opacity="0.12"/>
<circle cx="532" cy="0" r="1.4" fill="white" fill-opacity="0.12"/>
<circle cx="532" cy="28" r="1.4" fill="white" fill-opacity="0.12"/>
<circle cx="532" cy="56" r="1.4" fill="white" fill-opacity="0.12"/>
<circle cx="532" cy="84" r="1.4" fill="white" fill-opacity="0.12"/>
<circle cx="532" cy="112" r="1.4" fill="white" fill-opacity="0.12"/>
<circle cx="532" cy="140" r="1.4" fill="white" fill-opacity="0.12"/>
<circle cx="532" cy="168" r="1.4" fill="white" fill-opacity="0.12"/>
<circle cx="532" cy="196" r="1.4" fill="white" fill-opacity="0.12"/>
<circle cx="532" cy="224" r="1.4" fill="white" fill-opacity="0.12"/>
<circle cx="532" cy="252" r="1.4" fill="white" fill-opacity="0.12"/>
<circle cx="532" cy="280" r="1.4" fill="white" fill-opacity="0.12"/>
<circle cx="532" cy="308" r="1.4" fill="white" fill-opacity="0.12"/>
<circle cx="532" cy="336" r="1.4" fill="white" fill-opacity="0.12"/>
<circle cx="532" cy="364" r="1.4" fill="white" fill-opacity="0.12"/>
<circle cx="532" cy="392" r="1.4" fill="white" fill-opacity="0.12"/>
<circle cx="560" cy="0" r="1.4" fill="white" fill-opacity="0.12"/>
<circle cx="560" cy="28" r="1.4" fill="white" fill-opacity="0.12"/>
<circle cx="560" cy="56" r="1.4" fill="white" fill-opacity="0.12"/>
<circle cx="560" cy="84" r="1.4" fill="white" fill-opacity="0.12"/>
<circle cx="560" cy="112" r="1.4" fill="white" fill-opacity="0.12"/>
<circle cx="560" cy="140" r="1.4" fill="white" fill-opacity="0.12"/>
<circle cx="560" cy="168" r="1.4" fill="white" fill-opacity="0.12"/>
<circle cx="560" cy="196" r="1.4" fill="white" fill-opacity="0.12"/>
<circle cx="560" cy="224" r="1.4" fill="white" fill-opacity="0.12"/>
<circle cx="560" cy="252" r="1.4" fill="white" fill-opacity="0.12"/>
<circle cx="560" cy="280" r="1.4" fill="white" fill-opacity="0.12"/>
<circle cx="560" cy="308" r="1.4" fill="white" fill-opacity="0.12"/>
<circle cx="560" cy="336" r="1.4" fill="white" fill-opacity="0.12"/>
<circle cx="560" cy="364" r="1.4" fill="white" fill-opacity="0.12"/>
<circle cx="560" cy="392" r="1.4" fill="white" fill-opacity="0.12"/>
<circle cx="588" cy="0" r="1.4" fill="white" fill-opacity="0.12"/>
<circle cx="588" cy="28" r="1.4" fill="white" fill-opacity="0.12"/>
<circle cx="588" cy="56" r="1.4" fill="white" fill-opacity="0.12"/>
<circle cx="588" cy="84" r="1.4" fill="white" fill-opacity="0.12"/>
<circle cx="588" cy="112" r="1.4" fill="white" fill-opacity="0.12"/>
<circle cx="588" cy="140" r="1.4" fill="white" fill-opacity="0.12"/>
<circle cx="588" cy="168" r="1.4" fill="white" fill-opacity="0.12"/>
<circle cx="588" cy="196" r="1.4" fill="white" fill-opacity="0.12"/>
<circle cx="588" cy="224" r="1.4" fill="white" fill-opacity="0.12"/>
<circle cx="588" cy="252" r="1.4" fill="white" fill-opacity="0.12"/>
<circle cx="588" cy="280" r="1.4" fill="white" fill-opacity="0.12"/>
<circle cx="588" cy="308" r="1.4" fill="white" fill-opacity="0.12"/>
<circle cx="588" cy="336" r="1.4" fill="white" fill-opacity="0.12"/>
<circle cx="588" cy="364" r="1.4" fill="white" fill-opacity="0.12"/>
<circle cx="588" cy="392" r="1.4" fill="white" fill-opacity="0.12"/>

  <rect x="90" y="300" width="420" height="46" rx="8" fill="white" fill-opacity="0.18" stroke="white" stroke-opacity="0.35" stroke-width="1.5"/>
<rect x="78" y="238" width="444" height="46" rx="8" fill="white" fill-opacity="0.32999999999999996" stroke="white" stroke-opacity="0.35" stroke-width="1.5"/>
<rect x="66" y="176" width="468" height="46" rx="8" fill="white" fill-opacity="0.48" stroke="white" stroke-opacity="0.35" stroke-width="1.5"/>
<rect x="54" y="114" width="492" height="46" rx="8" fill="white" fill-opacity="0.6299999999999999" stroke="white" stroke-opacity="0.35" stroke-width="1.5"/>

  <text x="30" y="370" font-family="Arial, sans-serif" font-size="20" font-weight="600" fill="white" opacity="0.85">Terraform · Redshift</text>
</svg>