<svg width="600" height="400" viewBox="0 0 600 400" xmlns="http://www.w3.org/2000/svg">
  <defs>
    <linearGradient id="gmicroservices" x1="0%" y1="0%" x2="100%" y2="100%">
      <stop offset="0%" stop-color="#146EB4"/>
      <stop offset="100%" stop-color="#0F9D58"/>
    </linearGradient>
    <marker id="arrow" markerWidth="8" markerHeight="8" refX="4" refY="4" orient="auto">
      <path d="M0,0 L8,4 L0,8 Z" fill="white" fill-opacity="0.6"/>
    </marker>
  </defs>
  <rect width="600" height="400" fill="url(#gmicroservices)"/>
  <circle cx="0" cy="0" r="1.4" fill="white" fill-opacity="0.12"/>
<circle cx="0" cy="28" r="1.4" fill="white" fill-opacity="0.12"/>
<circle cx="0" cy="56" r="1.4" fill="white" fill-opacity="0.12"/>
<circle cx="0" cy="84" r="1.4" fill="white" fill-opacity="0.12"/>
<circle cx="0" cy="112" r="1.4" fill="white" fill-opacity="0.12"/>
<circle cx="0" cy="140" r="1.4" fill="white" fill-opacity="0.12"/>
<circle cx="0" cy="168" r="1.4" fill="white" fill-opacity="0.12"/>
<circle cx="0" cy="196" r="1.4" fill="white" fill-opacity="0.12"/>
<circle cx="0" cy="224" r="1.4" fill="white" fill-opacity="0.12"/>
<circle cx="0" cy="252" r="1.4" fill="white" fill-opacity="0.12"/>
<circle cx="0" cy="280" r="1.4" fill="white" fill-opacity="0.12"/>
<circle cx="0" cy="308" r="1.4" fill="white" fill-opacity="0.12"/>
<circle cx="0" cy="336" r="1.4" fill="white" fill-opacity="0.12"/>
<circle cx="0" cy="364" r="1.4" fill="white" fill-opacity="0.12"/>
<circle cx="0" cy="392" r="1.4" fill="white" fill-opacity="0.12"/>
<circle cx="28" cy="0" r="1.4" fill="white" fill-opacity="0.12"/>
<circle cx="28" cy="28" r="1.4" fill="white" fill-opacity="0.12"/>
<circle cx="28" cy="56" r="1.4" fill="white" fill-opacity="0.12"/>
<circle cx="28" cy="84" r="1.4" fill="white" fill-opacity="0.12"/>
<circle cx="28" cy="112" r="1.4" fill="white" fill-opacity="0.12"/>
<circle cx="28" cy="140" r="1.4" fill="white" fill-opacity="0.12"/>
<circle cx="28" cy="168" r="1.4" fill="white" fill-opacity="0.12"/>
<circle cx="28" cy="196" r="1.4" fill="white" fill-opacity="0.12"/>
<circle cx="28" cy="224" r="1.4" fill="white" fill-opacity="0.12"/>
<circle cx="28" cy="252" r="1.4" fill="white" fill-opacity="0.12"/>
<circle cx="28" cy="280" r="1.4" fill="white" fill-opacity="0.12"/>
<circle cx="28" cy="308" r="1.4" fill="white" fill-opacity="0.12"/>
<circle cx="28" cy="336" r="1.4" fill="white" fill-opacity="0.12"/>
<circle cx="28" cy="364" r="1.4" fill="white" fill-opacity="0.12"/>
<circle cx="28" cy="392" r="1.4" fill="white" fill-opacity="0.12"/>
<circle cx="56" cy="0" r="1.4" fill="white" fill-opacity="0.12"/>
<circle cx="56" cy="28" r="1.4" fill="white" fill-opacity="0.12"/>
<circle cx="56" cy="56" r="1.4" fill="white" fill-opacity="0.12"/>
<circle cx="56" cy="84" r="1.4" fill="white" fill-opacity="0.12"/>
<circle cx="56" cy="112" r="1.4" fill="white" fill-opacity="0.12"/>
<circle cx="56" cy="140" r="1.4" fill="white" fill-opacity="0.12"/>
<circle cx="56" cy="168" r="1.4" fill="white" fill-opacity="0.12"/>
<circle cx="56" cy="196" r="1.4" fill="white" fill-opacity="0.12"/>
<circle cx="56" cy="224" r="1.4" fill="white" fill-opacity="0.12"/>
<circle cx="56" cy="252" r="1.4" fill="white" fill-opacity="0.12"/>
<circle cx="56" cy="280" r="1.4" fill="white" fill-opacity="0.12"/>
<circle cx="56" cy="308" r="1.4" fill="white" fill-opacity="0.12"/>
<circle cx="56" cy="336" r="1.4" fill="white" fill-opacity="0.12"/>
<circle cx="56" cy="364" r="1.4" fill="white" fill-opacity="0.12"/>
<circle cx="56" cy="392" r="1.4" fill="white" fill-opacity="0.12"/>
<circle cx="84" cy="0" r="1.4" fill="white" fill-opacity="0.12"/>
<circle cx="84" cy="28" r="1.4" fill="white" fill-opacity="0.12"/>
<circle cx="84" cy="56" r="1.4" fill="white" fill-opacity="0.12"/>
<circle cx="84" cy="84" r="1.4" fill="white" fill-opacity="0.12"/>
<circle cx="84" cy="112" r="1.4" fill="white" fill-opacity="0.12"/>
<circle cx="84" cy="140" r="1.4" fill="white" fill-opacity="0.12"/>
<circle cx="84" cy="168" r="1.4" fill="white" fill-opacity="0.12"/>
<circle cx="84" cy="196" r="1.4" fill="white" fill-opacity="0.12"/>
<circle cx="84" cy="224" r="1.4" fill="white" fill-opacity="0.12"/>
<circle cx="84" cy="252" r="1.4" fill="white" fill-opacity="0.12"/>
<circle cx="84" cy="280" r="1.4" fill="white" fill-opacity="0.12"/>
<circle cx="84" cy="308" r="1.4" fill="white" fill-opacity="0.12"/>
<circle cx="84" cy="336" r="1.4" fill="white" fill-opacity="0.12"/>
<circle cx="84" cy="364" r="1.4" fill="white" fill-opacity="0.12"/>
<circle cx="84" cy="392" r="1.4" fill="white" fill-opacity="0.12"/>
<circle cx="112" cy="0" r="1.4" fill="white" fill-opacity="0.12"/>
<circle cx="112" cy="28" r="1.4" fill="white" fill-opacity="0.12"/>
<circle cx="112" cy="56" r="1.4" fill="white" fill-opacity="0.12"/>
<circle cx="112" cy="84" r="1.4" fill="white" fill-opacity="0.12"/>
<circle cx="112" cy="112" r="1.4" fill="white" fill-opacity="0.12"/>
<circle cx="112" cy="140" r="1.4" fill="white" fill-opacity="0.12"/>
<circle cx="112" cy="168" r="1.4" fill="white" fill-opacity="0.12"/>
<circle cx="112" cy="196" r="1.4" fill="white" fill-opacity="0.12"/>
<circle cx="112" cy="224" r="1.4" fill="white" fill-opacity="0.12"/>
<circle cx="112" cy="252" r="1.4" fill="white" fill-opacity="0.12"/>
<circle cx="112" cy="280" r="1.4" fill="white" fill-opacity="0.12"/>
<circle cx="112" cy="308" r="1.4" fill="white" fill-opacity="0.12"/>
<circle cx="112" cy="336" r="1.4" fill="white" fill-opacity="0.12"/>
<circle cx="112" cy="364" r="1.4" fill="white" fill-opacity="0.12"/>
<circle cx="112" cy="392" r="1.4" fill="white" fill-opacity="0.12"/>
<circle cx="140" cy="0" r="1.4" fill="white" fill-opacity="0.12"/>
<circle cx="140" cy="28" r="1.4" fill="white" fill-opacity="0.12"/>
<circle cx="140" cy="56" r="1.4" fill="white" fill-opacity="0.12"/>
<circle cx="140" cy="84" r="1.4" fill="white" fill-opacity="0.12"/>
<circle cx="140" cy="112" r="1.4" fill="white" fill-opacity="0.12"/>
<circle cx="140" cy="140" r="1.4" fill="white" fill-opacity="0.12"/>
<circle cx="140" cy="168" r="1.4" fill="white" fill-opacity="0.12"/>
<circle cx="140" cy="196" r="1.4" fill="white" fill-opacity="0.12"/>
<circle cx="140" cy="224" r="1.4" fill="white" fill-opacity="0.12"/>
<circle cx="140" cy="252" r="1.4" fill="white" fill-opacity="0.12"/>
<circle cx="140" cy="280" r="1.4" fill="white" fill-opacity="0.12"/>
<circle cx="140" cy="308" r="1.4" fill="white" fill-opacity="0.12"/>
<circle cx="140" cy="336" r="1.4" fill="white" fill-opacity="0.12"/>
<circle cx="140" cy="364" r="1.4" fill="white" fill-opacity="0.12"/>
<circle cx="140" cy="392" r="1.4" fill="white" fill-opacity="0.12"/>
<circle cx="168" cy="0" r="1.4" fill="white" fill-opacity="0.12"/>
<circle cx="168" cy="28" r="1.4" fill="white" fill-opacity="0.12"/>
<circle cx="168" cy="56" r="1.4" fill="white" fill-opacity="0.12"/>
<circle cx="168" cy="84" r="1.4" fill="white" fill-opacity="0.12"/>
<circle cx="168" cy="112" r="1.4" fill="white" fill-opacity="0.12"/>
<circle cx="168" cy="140" r="1.4" fill="white" fill-opacity="0.12"/>
<circle cx="168" cy="168" r="1.4" fill="white" fill-opacity="0.12"/>
<circle cx="168" cy="196" r="1.4" fill="white" fill-opacity="0.12"/>
<circle cx="168" cy="224" r="1.4" fill="white" fill-opacity="0.12"/>
<circle cx="168" cy="252" r="1.4" fill="white" fill-opacity="0.12"/>
<circle cx="168" cy="280" r="1.4" fill="white" fill-opacity="0.12"/>
<circle cx="168" cy="308" r="1.4" fill="white" fill-opacity="0.12"/>
<circle cx="168" cy="336" r="1.4" fill="white" fill-opacity="0.12"/>
<circle cx="168" cy="364" r="1.4" fill="white" fill-opacity="0.12"/>
<circle cx="168" cy="392" r="1.4" fill="white" fill-opacity="0.12"/>
<circle cx="196" cy="0" r="1.4" fill="white" fill-opacity="0.12"/>
<circle cx="196" cy="28" r="1.4" fill="white" fill-opacity="0.12"/>
<circle cx="196" cy="56" r="1.4" fill="white" fill-opacity="0.12"/>
<circle cx="196" cy="84" r="1.4" fill="white" fill-opacity="0.12"/>
<circle cx="196" cy="112" r="1.4" fill="white" fill-opacity="0.12"/>
<circle cx="196" cy="140" r="1.4" fill="white" fill-opacity="0.12"/>
<circle cx="196" cy="168" r="1.4" fill="white" fill-opacity="0.12"/>
<circle cx="196" cy="196" r="1.4" fill="white" fill-opacity="0.12"/>
<circle cx="196" cy="224" r="1.4" fill="white" fill-opacity="0.12"/>
<circle cx="196" cy="252" r="1.4" fill="white" fill-opacity="0.12"/>
<circle cx="196" cy="280" r="1.4" fill="white" fill-opacity="0.12"/>
<circle cx="196" cy="308" r="1.4" fill="white" fill-opacity="0.12"/>
<circle cx="196" cy="336" r="1.4" fill="white" fill-opacity="0.12"/>
<circle cx="196" cy="364" r="1.4" fill="white" fill-opacity="0.12"/>
<circle cx="196" cy="392" r="1.4" fill="white" fill-opacity="0.12"/>
<circle cx="224" cy="0" r="1.4" fill="white" fill-opacity="0.12"/>
<circle cx="224" cy="28" r="1.4" fill="white" fill-opacity="0.12"/>
<circle cx="224" cy="56" r="1.4" fill="white" fill-opacity="0.12"/>
<circle cx="224" cy="84" r="1.4" fill="white" fill-opacity="0.12"/>
<circle cx="224" cy="112" r="1.4" fill="white" fill-opacity="0.12"/>
<circle cx="224" cy="140" r="1.4" fill="white" fill-opacity="0.12"/>
<circle cx="224" cy="168" r="1.4" fill="white" fill-opacity="0.12"/>
<circle cx="224" cy="196" r="1.4" fill="white" fill-opacity="0.12"/>
<circle cx="224" cy="224" r="1.4" fill="white" fill-opacity="0.12"/>
<circle cx="224" cy="252" r="1.4" fill="white" fill-opacity="0.12"/>
<circle cx="224" cy="280" r="1.4" fill="white" fill-opacity="0.12"/>
<circle cx="224" cy="308" r="1.4" fill="white" fill-opacity="0.12"/>
<circle cx="224" cy="336" r="1.4" fill="white" fill-opacity="0.12"/>
<circle cx="224" cy="364" r="1.4" fill="white" fill-opacity="0.12"/>
<circle cx="224" cy="392" r="1.4" fill="white" fill-opacity="0.12"/>
<circle cx="252" cy="0" r="1.4" fill="white" fill-opacity="0.12"/>
<circle cx="252" cy="28" r="1.4" fill="white" fill-opacity="0.12"/>
<circle cx="252" cy="56" r="1.4" fill="white" fill-opacity="0.12"/>
<circle cx="252" cy="84" r="1.4" fill="white" fill-opacity="0.12"/>
<circle cx="252" cy="112" r="1.4" fill="white" fill-opacity="0.12"/>
<circle cx="252" cy="140" r="1.4" fill="white" fill-opacity="0.12"/>
<circle cx="252" cy="168" r="1.4" fill="white" fill-opacity="0.12"/>
<circle cx="252" cy="196" r="1.4" fill="white" fill-opacity="0.12"/>
<circle cx="252" cy="224" r="1.4" fill="white" fill-opacity="0.12"/>
<circle cx="252" cy="252" r="1.4" fill="white" fill-opacity="0.12"/>
<circle cx="252" cy="280" r="1.4" fill="white" fill-opacity="0.12"/>
<circle cx="252" cy="308" r="1.4" fill="white" fill-opacity="0.12"/>
<circle cx="252" cy="336" r="1.4" fill="white" fill-opacity="0.12"/>
<circle cx="252" cy="364" r="1.4" fill="white" fill-opacity="0.12"/>
<circle cx="252" cy="392" r="1.4" fill="white" fill-opacity="0.12"/>
<circle cx="280" cy="0" r="1.4" fill="white" fill-opacity="0.12"/>
<circle cx="280" cy="28" r="1.4" fill="white" fill-opacity="0.12"/>
<circle cx="280" cy="56" r="1.4" fill="white" fill-opacity="0.12"/>
<circle cx="280" cy="84" r="1.4" fill="white" fill-opacity="0.12"/>
<circle cx="280" cy="112" r="1.4" fill="white" fill-opacity="0.12"/>
<circle cx="280" cy="140" r="1.4" fill="white" fill-opacity="0.12"/>
<circle cx="280" cy="168" r="1.4" fill="white" fill-opacity="0.12"/>
<circle cx="280" cy="196" r="1.4" fill="white" fill-opacity="0.12"/>
<circle cx="280" cy="224" r="1.4" fill="white" fill-opacity="0.12"/>
<circle cx="280" cy="252" r="1.4" fill="white" fill-opacity="0.12"/>
<circle cx="280" cy="280" r="1.4" fill="white" fill-opacity="0.12"/>
<circle cx="280" cy="308" r="1.4" fill="white" fill-opacity="0.12"/>
<circle cx="280" cy="336" r="1.4" fill="white" fill-opacity="0.12"/>
<circle cx="280" cy="364" r="1.4" fill="white" fill-opacity="0.12"/>
<circle cx="280" cy="392" r="1.4" fill="white" fill-opacity="0.12"/>
<circle cx="308" cy="0" r="1.4" fill="white" fill-opacity="0.12"/>
<circle cx="308" cy="28" r="1.4" fill="white" fill-opacity="0.12"/>
<circle cx="308" cy="56" r="1.4" fill="white" fill-opacity="0.12"/>
<circle cx="308" cy="84" r="1.4" fill="white" fill-opacity="0.12"/>
<circle cx="308" cy="112" r="1.4" fill="white" fill-opacity="0.12"/>
<circle cx="308" cy="140" r="1.4" fill="white" fill-opacity="0.12"/>
<circle cx="308" cy="168" r="1.4" fill="white" fill-opacity="0.12"/>
<circle cx="308" cy="196" r="1.4" fill="white" fill-opacity="0.12"/>
<circle cx="308" cy="224" r="1.4" fill="white" fill-opacity="0.12"/>
<circle cx="308" cy="252" r="1.4" fill="white" fill-opacity="0.12"/>
<circle cx="308" cy="280" r="1.4" fill="white" fill-opacity="0.12"/>
<circle cx="308" cy="308" r="1.4" fill="white" fill-opacity="0.12"/>
<circle cx="308" cy="336" r="1.4" fill="white" fill-opacity="0.12"/>
<circle cx="308" cy="364" r="1.4" fill="white" fill-opacity="0.12"/>
<circle cx="308" cy="392" r="1.4" fill="white" fill-opacity="0.12"/>
<circle cx="336" cy="0" r="1.4" fill="white" fill-opacity="0.12"/>
<circle cx="336" cy="28" r="1.4" fill="white" fill-opacity="0.12"/>
<circle cx="336" cy="56" r="1.4" fill="white" fill-opacity="0.12"/>
<circle cx="336" cy="84" r="1.4" fill="white" fill-opacity="0.12"/>
<circle cx="336" cy="112" r="1.4" fill="white" fill-opacity="0.12"/>
<circle cx="336" cy="140" r="1.4" fill="white" fill-opacity="0.12"/>
<circle cx="336" cy="168" r="1.4" fill="white" fill-opacity="0.12"/>
<circle cx="336" cy="196" r="1.4" fill="white" fill-opacity="0.12"/>
<circle cx="336" cy="224" r="1.4" fill="white" fill-opacity="0.12"/>
<circle cx="336" cy="252" r="1.4" fill="white" fill-opacity="0.12"/>
<circle cx="336" cy="280" r="1.4" fill="white" fill-opacity="0.12"/>
<circle cx="336" cy="308" r="1.4" fill="white" fill-opacity="0.12"/>
<circle cx="336" cy="336" r="1.4" fill="white" fill-opacity="0.12"/>
<circle cx="336" cy="364" r="1.4" fill="white" fill-opacity="0.12"/>
<circle cx="336" cy="392" r="1.4" fill="white" fill-opacity="0.12"/>
<circle cx="364" cy="0" r="1.4" fill="white" fill-opacity="0.12"/>
<circle cx="364" cy="28" r="1.4" fill="white" fill-opacity="0.12"/>
<circle cx="364" cy="56" r="1.4" fill="white" fill-opacity="0.12"/>
<circle cx="364" cy="84" r="1.4" fill="white" fill-opacity="0.12"/>
<circle cx="364" cy="112" r="1.4" fill="white" fill-opacity="0.12"/>
<circle cx="364" cy="140" r="1.4" fill="white" fill-opacity="0.12"/>
<circle cx="364" cy="168" r="1.4" fill="white" fill-opacity="0.12"/>
<circle cx="364" cy="196" r="1.4" fill="white" fill-opacity="0.12"/>
<circle cx="364" cy="224" r="1.4" fill="white" fill-opacity="0.12"/>
<circle cx="364" cy="252" r="1.4" fill="white" fill-opacity="0.12"/>
<circle cx="364" cy="280" r="1.4" fill="white" fill-opacity="0.12"/>
<circle cx="364" cy="308" r="1.4" fill="white" fill-opacity="0.12"/>
<circle cx="364" cy="336" r="1.4" fill="white" fill-opacity="0.12"/>
<circle cx="364" cy="364" r="1.4" fill="white" fill-opacity="0.12"/>
<circle cx="364" cy="392" r="1.4" fill="white" fill-opacity="0.12"/>
<circle cx="392" cy="0" r="1.4" fill="white" fill-opacity="0.12"/>
<circle cx="392" cy="28" r="1.4" fill="white" fill-opacity="0.12"/>
<circle cx="392" cy="56" r="1.4" fill="white" fill-opacity="0.12"/>
<circle cx="392" cy="84" r="1.4" fill="white" fill-opacity="0.12"/>
<circle cx="392" cy="112" r="1.4" fill="white" fill-opacity="0.12"/>
<circle cx="392" cy="140" r="1.4" fill="white" fill-opacity="0.12"/>
<circle cx="392" cy="168" r="1.4" fill="white" fill-opacity="0.12"/>
<circle cx="392" cy="196" r="1.4" fill="white" fill-opacity="0.12"/>
<circle cx="392" cy="224" r="1.4" fill="white" fill-opacity="0.12"/>
<circle cx="392" cy="252" r="1.4" fill="white" fill-opacity="0.12"/>
<circle cx="392" cy="280" r="1.4" fill="white" fill-opacity="0.12"/>
<circle cx="392" cy="308" r="1.4" fill="white" fill-opacity="0.12"/>
<circle cx="392" cy="336" r="1.4" fill="white" fill-opacity="0.12"/>
<circle cx="392" cy="364" r="1.4" fill="white" fill-opacity="0.12"/>
<circle cx="392" cy="392" r="1.4" fill="white" fill-opacity="0.12"/>
<circle cx="420" cy="0" r="1.4" fill="white" fill-opacity="0.12"/>
<circle cx="420" cy="28" r="1.4" fill="white" fill-opacity="0.12"/>
<circle cx="420" cy="56" r="1.4" fill="white" fill-opacity="0.12"/>
<circle cx="420" cy="84" r="1.4" fill="white" fill-opacity="0.12"/>
<circle cx="420" cy="112" r="1.4" fill="white" fill-opacity="0.12"/>
<circle cx="420" cy="140" r="1.4" fill="white" fill-opacity="0.12"/>
<circle cx="420" cy="168" r="1.4" fill="white" fill-opacity="0.12"/>
<circle cx="420" cy="196" r="1.4" fill="white" fill-opacity="0.12"/>
<circle cx="420" cy="224" r="1.4" fill="white" fill-opacity="0.12"/>
<circle cx="420" cy="252" r="1.4" fill="white" fill-opacity="0.12"/>
<circle cx="420" cy="280" r="1.4" fill="white" fill-opacity="0.12"/>
<circle cx="420" cy="308" r="1.4" fill="white" fill-opacity="0.12"/>
<circle cx="420" cy="336" r="1.4" fill="white" fill-opacity="0.12"/>
<circle cx="420" cy="364" r="1.4" fill="white" fill-opacity="0.12"/>
<circle cx="420" cy="392" r="1.4" fill="white" fill-opacity="0.12"/>
<circle cx="448" cy="0" r="1.4" fill="white" fill-opacity="0.12"/>
<circle cx="448" cy="28" r="1.4" fill="white" fill-opacity="0.12"/>
<circle cx="448" cy="56" r="1.4" fill="white" fill-opacity="0.12"/>
<circle cx="448" cy="84" r="1.4" fill="white" fill-opacity="0.12"/>
<circle cx="448" cy="112" r="1.4" fill="white" fill-opacity="0.12"/>
<circle cx="448" cy="140" r="1.4" fill="white" fill-opacity="0.12"/>
<circle cx="448" cy="168" r="1.4" fill="white" fill-opacity="0.12"/>
<circle cx="448" cy="196" r="1.4" fill="white" fill-opacity="0.12"/>
<circle cx="448" cy="224" r="1.4" fill="white" fill-opacity="0.12"/>
<circle cx="448" cy="252" r="1.4" fill="white" fill-opacity="0.12"/>
<circle cx="448" cy="280" r="1.4" fill="white" fill-opacity="0.12"/>
<circle cx="448" cy="308" r="1.4" fill="white" fill-opacity="0.12"/>
<circle cx="448" cy="336" r="1.4" fill="white" fill-opacity="0.12"/>
<circle cx="448" cy="364" r="1.4" fill="white" fill-opacity="0.12"/>
<circle cx="448" cy="392" r="1.4" fill="white" fill-opacity="0.12"/>
<circle cx="476" cy="0" r="1.4" fill="white" fill-opacity="0.12"/>
<circle cx="476" cy="28" r="1.4" fill="white" fill-opacity="0.12"/>
<circle cx="476" cy="56" r="1.4" fill="white" fill-opacity="0.12"/>
<circle cx="476" cy="84" r="1.4" fill="white" fill-opacity="0.12"/>
<circle cx="476" cy="112" r="1.4" fill="white" fill-opacity="0.12"/>
<circle cx="476" cy="140" r="1.4" fill="white" fill-opacity="0.12"/>
<circle cx="476" cy="168" r="1.4" fill="white" fill-opacity="0.12"/>
<circle cx="476" cy="196" r="1.4" fill="white" fill-opacity="0.12"/>
<circle cx="476" cy="224" r="1.4" fill="white" fill-opacity="0.12"/>
<circle cx="476" cy="252" r="1.4" fill="white" fill-opacity="0.12"/>
<circle cx="476" cy="280" r="1.4" fill="white" fill-opacity="0.12"/>
<circle cx="476" cy="308" r="1.4" fill="white" fill-opacity="0.12"/>
<circle cx="476" cy="336" r="1.4" fill="white" fill-opacity="0.12"/>
<circle cx="476" cy="364" r="1.4" fill="white" fill-opacity="0.12"/>
<circle cx="476" cy="392" r="1.4" fill="white" fill-opacity="0.12"/>
<circle cx="504" cy="0" r="1.4" fill="white" fill-opacity="0.12"/>
<circle cx="504" cy="28" r="1.4" fill="white" fill-opacity="0.12"/>
<circle cx="504" cy="56" r="1.4" fill="white" fill-opacity="0.12"/>
<circle cx="504" cy="84" r="1.4" fill="white" fill-opacity="0.12"/>
<circle cx="504" cy="112" r="1.4" fill="white" fill-opacity="0.12"/>
<circle cx="504" cy="140" r="1.4" fill="white" fill-opacity="0.12"/>
<circle cx="504" cy="168" r="1.4" fill="white" fill-opacity="0.12"/>
<circle cx="504" cy="196" r="1.4" fill="white" fill-opacity="0.12"/>
<circle cx="504" cy="224" r="1.4" fill="white" fill-opacity="0.12"/>
<circle cx="504" cy="252" r="1.4" fill="white" fill-opacity="0.12"/>
<circle cx="504" cy="280" r="1.4" fill="white" fill-opacity="0.12"/>
<circle cx="504" cy="308" r="1.4" fill="white" fill-opacity="0.12"/>
<circle cx="504" cy="336" r="1.4" fill="white" fill-opacity="0.12"/>
<circle cx="504" cy="364" r="1.4" fill="white" fill-opacity="0.12"/>
<circle cx="504" cy="392" r="1.4" fill="white" fill-opacity="0.12"/>
<circle cx="532" cy="0" r="1.4" fill="white" fill-opacity="0.12"/>
<circle cx="532" cy="28" r="1.4" fill="white" fill-opacity="0.12"/>
<circle cx="532" cy="56" r="1.4" fill="white" fill-opacity="0.12"/>
<circle cx="532" cy="84" r="1.4" fill="white" fill-opacity="0.12"/>
<circle cx="532" cy="112" r="1.4" fill="white" fill-opacity="0.12"/>
<circle cx="532" cy="140" r="1.4" fill="white" fill-opacity="0.12"/>
<circle cx="532" cy="168" r="1.4" fill="white" fill-opacity="0.12"/>
<circle cx="532" cy="196" r="1.4" fill="white" fill-opacity="0.12"/>
<circle cx="532" cy="224" r="1.4" fill="white" fill-opacity="0.12"/>
<circle cx="532" cy="252" r="1.4" fill="white" fill-opacity="0.12"/>
<circle cx="532" cy="280" r="1.4" fill="white" fill-opacity="0.12"/>
<circle cx="532" cy="308" r="1.4" fill="white" fill-opacity="0.12"/>
<circle cx="532" cy="336" r="1.4" fill="white" fill-opacity="0.12"/>
<circle cx="532" cy="364" r="1.4" fill="white" fill-opacity="0.12"/>
<circle cx="532" cy="392" r="1.4" fill="white" fill-opacity="0.12"/>
<circle cx="560" cy="0" r="1.4" fill="white" fill-opacity="0.12"/>
<circle cx="560" cy="28" r="1.4" fill="white" fill-opacity="0.12"/>
<circle cx="560" cy="56" r="1.4" fill="white" fill-opacity="0.12"/>
<circle cx="560" cy="84" r="1.4" fill="white" fill-opacity="0.12"/>
<circle cx="560" cy="112" r="1.4" fill="white" fill-opacity="0.12"/>
<circle cx="560" cy="140" r="1.4" fill="white" fill-opacity="0.12"/>
<circle cx="560" cy="168" r="1.4" fill="white" fill-opacity="0.12"/>
<circle cx="560" cy="196" r="1.4" fill="white" fill-opacity="0.12"/>
<circle cx="560" cy="224" r="1.4" fill="white" fill-opacity="0.12"/>
<circle cx="560" cy="252" r="1.4" fill="white" fill-opacity="0.12"/>
<circle cx="560" cy="280" r="1.4" fill="white" fill-opacity="0.12"/>
<circle cx="560" cy="308" r="1.4" fill="white" fill-opacity="0.12"/>
<circle cx="560" cy="336" r="1.4" fill="white" fill-opacity="0.12"/>
<circle cx="560" cy="364" r="1.4" fill="white" fill-opacity="0.12"/>
<circle cx="560" cy="392" r="1.4" fill="white" fill-opacity="0.12"/>
<circle cx="588" cy="0" r="1.4" fill="white" fill-opacity="0.12"/>
<circle cx="588" cy="28" r="1.4" fill="white" fill-opacity="0.12"/>
<circle cx="588" cy="56" r="1.4" fill="white" fill-opacity="0.12"/>
<circle cx="588" cy="84" r="1.4" fill="white" fill-opacity="0.12"/>
<circle cx="588" cy="112" r="1.4" fill="white" fill-opacity="0.12"/>
<circle cx="588" cy="140" r="1.4" fill="white" fill-opacity="0.12"/>
<circle cx="588" cy="168" r="1.4" fill="white" fill-opacity="0.12"/>
<circle cx="588" cy="196" r="1.4" fill="white" fill-opacity="0.12"/>
<circle cx="588" cy="224" r="1.4" fill="white" fill-opacity="0.12"/>
<circle cx="588" cy="252" r="1.4" fill="white" fill-opacity="0.12"/>
<circle cx="588" cy="280" r="1.4" fill="white" fill-opacity="0.12"/>
<circle cx="588" cy="308" r="1.4" fill="white" fill-opacity="0.12"/>
<circle cx="588" cy="336" r="1.4" fill="white" fill-opacity="0.12"/>
<circle cx="588" cy="364" r="1.4" fill="white" fill-opacity="0.12"/>
<circle cx="588" cy="392" r="1.4" fill="white" fill-opacity="0.12"/>

  <polygon points="77.0,60.0 68.5,74.7 51.5,74.7 43.0,60.0 51.5,45.3 68.5,45.3" fill="white" fill-opacity="0.12" stroke="white" stroke-opacity="0.3" stroke-width="1.5"/>
<polygon points="131.4,60.0 122.9,74.7 105.9,74.7 97.4,60.0 105.9,45.3 122.9,45.3" fill="white" fill-opacity="0.12" stroke="white" stroke-opacity="0.3" stroke-width="1.5"/>
<polygon points="185.8,60.0 177.3,74.7 160.3,74.7 151.8,60.0 160.3,45.3 177.3,45.3" fill="white" fill-opacity="0.12" stroke="white" stroke-opacity="0.3" stroke-width="1.5"/>
<polygon points="240.2,60.0 231.7,74.7 214.7,74.7 206.2,60.0 214.7,45.3 231.7,45.3" fill="white" fill-opacity="0.12" stroke="white" stroke-opacity="0.3" stroke-width="1.5"/>
<polygon points="294.6,60.0 286.1,74.7 269.1,74.7 260.6,60.0 269.1,45.3 286.1,45.3" fill="white" fill-opacity="0.55" stroke="white" stroke-opacity="0.3" stroke-width="1.5"/>
<polygon points="349.0,60.0 340.5,74.7 323.5,74.7 315.0,60.0 323.5,45.3 340.5,45.3" fill="white" fill-opacity="0.12" stroke="white" stroke-opacity="0.3" stroke-width="1.5"/>
<polygon points="104.2,107.6 95.7,122.3 78.7,122.3 70.2,107.6 78.7,92.9 95.7,92.9" fill="white" fill-opacity="0.12" stroke="white" stroke-opacity="0.3" stroke-width="1.5"/>
<polygon points="158.6,107.6 150.1,122.3 133.1,122.3 124.6,107.6 133.1,92.9 150.1,92.9" fill="white" fill-opacity="0.12" stroke="white" stroke-opacity="0.3" stroke-width="1.5"/>
<polygon points="213.0,107.6 204.5,122.3 187.5,122.3 179.0,107.6 187.5,92.9 204.5,92.9" fill="white" fill-opacity="0.12" stroke="white" stroke-opacity="0.3" stroke-width="1.5"/>
<polygon points="267.4,107.6 258.9,122.3 241.9,122.3 233.4,107.6 241.9,92.9 258.9,92.9" fill="white" fill-opacity="0.12" stroke="white" stroke-opacity="0.3" stroke-width="1.5"/>
<polygon points="321.8,107.6 313.3,122.3 296.3,122.3 287.8,107.6 296.3,92.9 313.3,92.9" fill="white" fill-opacity="0.12" stroke="white" stroke-opacity="0.3" stroke-width="1.5"/>
<polygon points="376.2,107.6 367.7,122.3 350.7,122.3 342.2,107.6 350.7,92.9 367.7,92.9" fill="white" fill-opacity="0.12" stroke="white" stroke-opacity="0.3" stroke-width="1.5"/>
<polygon points="77.0,155.2 68.5,169.9 51.5,169.9 43.0,155.2 51.5,140.5 68.5,140.5" fill="white" fill-opacity="0.12" stroke="white" stroke-opacity="0.3" stroke-width="1.5"/>
<polygon points="131.4,155.2 122.9,169.9 105.9,169.9 97.4,155.2 105.9,140.5 122.9,140.5" fill="white" fill-opacity="0.12" stroke="white" stroke-opacity="0.3" stroke-width="1.5"/>
<polygon points="185.8,155.2 177.3,169.9 160.3,169.9 151.8,155.2 160.3,140.5 177.3,140.5" fill="white" fill-opacity="0.12" stroke="white" stroke-opacity="0.3" stroke-width="1.5"/>
<polygon points="240.2,155.2 231.7,169.9 214.7,169.9 206.2,155.2 214.7,140.5 231.7,140.5" fill="white" fill-opacity="0.12" stroke="white" stroke-opacity="0.3" stroke-width="1.5"/>
<polygon points="294.6,155.2 286.1,169.9 269.1,169.9 260.6,155.2 269.1,140.5 286.1,140.5" fill="white" fill-opacity="0.12" stroke="white" stroke-opacity="0.3" stroke-width="1.5"/>
<polygon points="349.0,155.2 340.5,169.9 323.5,169.9 315.0,155.2 323.5,140.5 340.5,140.5" fill="white" fill-opacity="0.12" stroke="white" stroke-opacity="0.3" stroke-width="1.5"/>
<polygon points="104.2,202.8 95.7,217.5 78.7,217.5 70.2,202.8 78.7,188.1 95.7,188.1" fill="white" fill-opacity="0.12" stroke="white" stroke-opacity="0.3" stroke-width="1.5"/>
<polygon points="158.6,202.8 150.1,217.5 133.1,217.5 124.6,202.8 133.1,188.1 150.1,188.1" fill="white" fill-opacity="0.12" stroke="white" stroke-opacity="0.3" stroke-width="1.5"/>
<polygon points="213.0,202.8 204.5,217.5 187.5,217.5 179.0,202.8 187.5,188.1 204.5,188.1" fill="white" fill-opacity="0.12" stroke="white" stroke-opacity="0.3" stroke-width="1.5"/>
<polygon points="267.4,202.8 258.9,217.5 241.9,217.5 233.4,202.8 241.9,188.1 258.9,188.1" fill="white" fill-opacity="0.12" stroke="white" stroke-opacity="0.3" stroke-width="1.5"/>
<polygon points="321.8,202.8 313.3,217.5 296.3,217.5 287.8,202.8 296.3,188.1 313.3,188.1" fill="white" fill-opacity="0.12" stroke="white" stroke-opacity="0.3" stroke-width="1.5"/>
<polygon points="376.2,202.8 367.7,217.5 350.7,217.5 342.2,202.8 350.7,188.1 367.7,188.1" fill="white" fill-opacity="0.12" stroke="white" stroke-opacity="0.3" stroke-width="1.5"/>

  <text x="30" y="370" font-family="Arial, sans-serif" font-size="20" font-weight="600" fill="white" opacity="0.85">Multi-Cloud Microservices</text>
</svg>